<?xml version="1.0" encoding="UTF-8" standalone="no"?>
<!DOCTYPE svg PUBLIC "-//W3C//DTD SVG 1.1//EN" "http://www.w3.org/Graphics/SVG/1.1/DTD/svg11.dtd">
<svg width="100%" height="100%" viewBox="0 0 1081 1080" version="1.1" xmlns="http://www.w3.org/2000/svg" xmlns:xlink="http://www.w3.org/1999/xlink" xml:space="preserve" xmlns:serif="http://www.serif.com/" style="fill-rule:evenodd;clip-rule:evenodd;stroke-linecap:round;stroke-linejoin:round;stroke-miterlimit:1.5;">
    <g transform="matrix(1,0,0,1,-5698,0)">
        <g transform="matrix(1,0,0,1,2237.3,0)">
            <rect id="Chleba" x="3461.23" y="0" width="1080" height="1080" style="fill:none;"/>
            <clipPath id="_clip1">
                <rect id="Chleba1" serif:id="Chleba" x="3461.23" y="0" width="1080" height="1080"/>
            </clipPath>
            <g clip-path="url(#_clip1)">
                <g transform="matrix(1,0,0,1,3461.23,0)">
                    <rect x="0" y="0" width="1080" height="1080" style="fill:rgb(255,92,157);"/>
                </g>
                <g transform="matrix(2.41951,0,0,2.41951,-5562.54,-563.124)">
                    <g transform="matrix(1,0,0,1,-2237.3,0)">
                        <path d="M6065.23,540C6077.71,599.168 6112.9,633.314 6144.61,649.74C6194.03,678.044 6305.79,570.751 6302.51,522.318C6301.89,513.144 6302.51,439.825 6302.51,439.825L6065.23,540Z" style="fill:rgb(168,91,51);stroke:rgb(168,91,51);stroke-width:10.75px;"/>
                    </g>
                    <g transform="matrix(1,0,0,1,-2237.3,0)">
                        <path d="M6083.02,289.111C6053.93,308.523 6048.94,326.584 6047.26,349.148C6044.5,386.101 6068.88,441.129 6064.09,502.57C6059.81,557.365 6077.99,605.234 6147.94,612.876C6311.55,581.96 6314.73,462.076 6292.99,380.47C6234.47,302.069 6165.05,269.207 6083.02,289.111Z" style="fill:rgb(215,166,85);"/>
                        <path d="M6083.02,289.111C6053.93,308.523 6048.94,326.584 6047.26,349.148C6044.5,386.101 6068.88,441.129 6064.09,502.57C6059.81,557.365 6077.99,605.234 6147.94,612.876C6311.55,581.96 6314.73,462.076 6292.99,380.47C6234.47,302.069 6165.05,269.207 6083.02,289.111Z" style="fill:none;stroke:rgb(168,91,51);stroke-width:10.75px;"/>
                        <path d="M6083.02,289.111C6165.05,269.207 6234.47,302.069 6292.99,380.47C6314.73,462.076 6311.55,581.96 6147.94,612.876C6077.99,605.234 6059.81,557.365 6064.09,502.57C6068.88,441.129 6044.5,386.101 6047.26,349.148C6048.94,326.584 6053.93,308.523 6083.02,289.111ZM6086.52,297.061C6061.64,314.072 6057.26,329.966 6055.78,349.784C6054.73,363.914 6057.95,380.794 6061.75,399.74C6067.85,430.155 6075.55,465.519 6072.61,503.235C6070.24,533.475 6074.79,561.563 6093.13,580.601C6105.05,592.983 6122.74,601.315 6147.61,604.239C6209.43,592.319 6247.3,567.376 6268.93,536.331C6301.21,489.999 6297.29,430.815 6285.15,384.261C6229.6,310.493 6164.07,278.841 6086.52,297.061Z" style="fill:rgb(200,145,55);"/>
                    </g>
                </g>
                <g transform="matrix(1.41114,0,0,1.41114,-5032.4,-335.31)">
                    <path d="M6175.62,439.405C6180.75,467.186 6183.69,495.015 6187.74,522.896C6188.94,531.143 6192.81,539.103 6194.43,547.347C6197.43,562.628 6198.67,578.464 6200.5,593.923C6202.56,611.313 6198.54,629.046 6201.71,646.275C6204.6,661.935 6214.06,675.783 6217.38,691.619C6222,713.734 6210.59,755.108 6226.28,770.98C6235.79,780.594 6249.3,782.966 6259.36,791.254C6269.37,799.504 6275.59,811.59 6285.24,820.168C6305.88,838.503 6338.2,841.929 6363.78,835.676C6384.89,830.515 6399.43,812.955 6419.89,806.243C6451.36,795.918 6484.67,796.658 6506.78,767.855C6531.02,736.271 6521.1,700.007 6533.02,665.27C6545.98,627.474 6566.49,611.564 6560.07,566.421C6555.81,536.405 6545.49,500.392 6524.81,477.217C6507.44,457.748 6485.01,445.456 6466.4,427.598C6453.8,415.501 6445.24,400.486 6432.28,388.593C6406.28,364.737 6371.24,350.971 6336.62,346.72C6303.35,342.635 6279.63,356.105 6249.71,366.494C6230.16,373.284 6212.19,376.314 6195.05,388.849C6181.49,398.761 6176.77,421.479 6175.62,439.405Z" style="fill:white;"/>
                    <path d="M6175.62,439.405C6176.77,421.479 6181.49,398.761 6195.05,388.849C6212.19,376.314 6230.16,373.284 6249.71,366.494C6279.63,356.105 6303.35,342.635 6336.62,346.72C6371.24,350.971 6406.28,364.737 6432.28,388.593C6445.24,400.486 6453.8,415.501 6466.4,427.598C6485.01,445.456 6507.44,457.748 6524.81,477.217C6545.49,500.392 6555.81,536.405 6560.07,566.421C6566.49,611.564 6545.98,627.474 6533.02,665.27C6521.1,700.007 6531.02,736.271 6506.78,767.855C6484.67,796.658 6451.36,795.918 6419.89,806.243C6399.43,812.955 6384.89,830.515 6363.78,835.676C6338.2,841.929 6305.88,838.503 6285.24,820.168C6275.59,811.59 6269.37,799.504 6259.36,791.254C6249.3,782.966 6235.79,780.594 6226.28,770.98C6210.59,755.108 6222,713.734 6217.38,691.619C6214.06,675.783 6204.6,661.935 6201.71,646.275C6198.54,629.046 6202.56,611.313 6200.5,593.923C6198.67,578.464 6197.43,562.628 6194.43,547.347C6192.81,539.103 6188.94,531.143 6187.74,522.896C6183.69,495.015 6180.75,467.186 6175.62,439.405ZM6184.69,438.887C6189.71,466.411 6192.65,493.981 6196.65,521.602C6197.83,529.705 6201.68,537.512 6203.27,545.612C6206.31,561.115 6207.59,577.18 6209.45,592.865C6211.48,610.063 6207.43,627.602 6210.57,644.642C6213.45,660.232 6222.9,674.008 6226.19,689.774C6229.06,703.45 6226.14,724.272 6226.7,742.275C6226.99,751.357 6227.79,759.693 6232.69,764.644C6236.7,768.704 6241.64,771.121 6246.55,773.511C6253.02,776.653 6259.5,779.7 6265.09,784.3C6275.19,792.621 6281.49,804.781 6291.23,813.433C6309.71,829.853 6338.73,832.524 6361.64,826.924C6371.16,824.597 6379.13,819.337 6387.09,814.04C6396.59,807.717 6406.07,801.294 6417.08,797.682C6432.86,792.507 6449.09,790.098 6464.15,785.38C6477.47,781.21 6489.84,775.131 6499.64,762.369C6510.66,747.997 6513.72,732.488 6515.57,716.693C6517.69,698.712 6518.32,680.341 6524.5,662.347C6529.81,646.863 6536.32,634.953 6541.85,623.292C6549.26,607.65 6554.68,592.494 6551.15,567.689C6547.12,539.303 6537.64,505.133 6518.09,483.215C6500.87,463.923 6478.6,451.794 6460.16,434.098C6447.61,422.048 6439.1,407.078 6426.19,395.232C6401.56,372.632 6368.32,359.69 6335.52,355.662C6303.77,351.763 6281.22,365.089 6252.66,375.006C6233.99,381.49 6216.74,384.151 6200.37,396.123C6196.19,399.18 6193.24,403.924 6190.98,409.273C6187.12,418.415 6185.37,429.329 6184.69,438.887Z" style="fill:rgb(202,202,202);"/>
                </g>
                <g transform="matrix(1.55363,0,0,1.55363,-5924.16,-394.506)">
                    <path d="M6217.59,351.319C6200.07,362.363 6172.81,388.917 6170.01,414.91C6169.19,422.61 6171.3,443.867 6170.01,451.526C6167.86,464.364 6178.27,473.098 6179.88,486.197C6180.8,493.654 6185.39,499.615 6186.9,506.866C6190.99,526.582 6194.01,584.338 6223.41,595.182C6359.86,645.509 6326.01,511.514 6345.62,478.544C6360.51,453.515 6376.51,438.706 6404.85,443.296C6496.89,458.204 6456.7,382.139 6391.38,347.659C6385.91,344.771 6380.08,342.756 6374.01,341.664C6345.45,336.527 6318.41,328.834 6291.33,334.807C6275.62,338.272 6235.11,340.274 6217.59,351.319Z" style="fill:rgb(183,0,72);fill-opacity:0.99;"/>
                    <path d="M6217.59,351.319C6235.11,340.274 6275.62,338.272 6291.33,334.807C6318.41,328.834 6345.45,336.527 6374.01,341.664C6380.08,342.756 6385.91,344.771 6391.38,347.659C6456.7,382.139 6496.89,458.204 6404.85,443.296C6376.51,438.706 6360.51,453.515 6345.62,478.544C6326.01,511.514 6359.86,645.509 6223.41,595.182C6194.01,584.338 6190.99,526.582 6186.9,506.866C6185.39,499.615 6180.8,493.654 6179.88,486.197C6178.27,473.098 6167.86,464.364 6170.01,451.526C6171.3,443.867 6169.19,422.61 6170.01,414.91C6172.81,388.917 6200.07,362.363 6217.59,351.319ZM6225.83,364.393C6216.64,370.187 6204.4,380.882 6195.54,393.405C6190.37,400.709 6186.24,408.609 6185.38,416.563C6184.53,424.454 6186.57,446.237 6185.26,454.086C6184.53,458.426 6187.27,461.666 6189.04,465.373C6191.83,471.214 6194.36,477.33 6195.22,484.311C6195.59,487.276 6197.07,489.8 6198.22,492.451C6199.8,496.082 6201.21,499.777 6202.03,503.727C6204.39,515.112 6206.23,539.708 6213.55,559.791C6216.94,569.074 6220.91,577.789 6228.76,580.683C6261.03,592.583 6281.89,593.878 6295.75,586.661C6304.6,582.054 6309.67,573.847 6313.19,564.519C6317.64,552.692 6319.54,539.051 6321.01,526.054C6323.6,503.061 6325.7,481.807 6332.34,470.643C6350.97,439.327 6371.86,422.298 6407.32,428.04C6418.99,429.931 6428.14,430.272 6435.09,429.08C6438.65,428.468 6441.38,427.842 6442.84,426.037C6443.87,424.751 6443.4,422.987 6443.02,421.078C6442.36,417.832 6440.9,414.363 6438.91,410.737C6429.42,393.48 6408.66,374.253 6384.17,361.325C6380.11,359.181 6375.78,357.685 6371.27,356.874C6344.79,352.11 6319.77,344.36 6294.66,349.898C6285.15,351.995 6266.64,353.58 6249.54,356.904C6240.34,358.692 6231.54,360.797 6225.83,364.393Z" style="fill:rgb(232,80,78);"/>
                </g>
                <g transform="matrix(1.41114,0,0,1.41114,-5064.43,-367.336)">
                    <path d="M6272.2,401.145C6248.56,411.396 6226.85,430.064 6223.2,456.983" style="fill:none;stroke:rgb(233,77,90);stroke-width:9.01px;"/>
                </g>
                <g transform="matrix(1.41114,0,0,1.41114,-5032.4,-335.31)">
                    <path d="M6264.65,483.175C6264.65,504.549 6242.82,510.484 6233.86,526.551" style="fill:none;stroke:rgb(233,77,90);stroke-width:9.01px;"/>
                </g>
                <g transform="matrix(1.41114,0,0,1.41114,-5073.64,-340.132)">
                    <path d="M6299.94,438.358C6304.97,436.688 6312.82,435.637 6317.05,431.842C6326.24,423.609 6326.41,410.313 6341.43,409.816C6344.02,409.731 6346.54,409.806 6349.08,410.327" style="fill:none;stroke:rgb(233,77,90);stroke-width:9.01px;"/>
                </g>
                <g transform="matrix(1.41114,0,0,1.41114,-5032.4,-335.31)">
                    <path d="M6349.8,382.896C6361.38,381.928 6371.55,380.96 6382.41,385.009" style="fill:none;stroke:rgb(233,77,90);stroke-width:9.01px;"/>
                </g>
                <g transform="matrix(1.44945,0,0,1.46865,-5287.61,-382.23)">
                    <path d="M5766.1,1093.03C5789.9,1079.25 6572.29,415.657 6572.29,415.657C6572.29,415.657 6420.54,410.503 6372.75,445.147C6324.96,479.791 6163.08,712.154 6163.08,712.154L5734.8,1080C5734.8,1080 5742.31,1106.8 5766.1,1093.03Z" style="fill:rgb(150,148,146);"/>
                    <path d="M5766.1,1093.03C5789.9,1079.25 6572.29,415.657 6572.29,415.657C6572.29,415.657 6420.54,410.503 6372.75,445.147C6324.96,479.791 6163.08,712.154 6163.08,712.154L5734.8,1080C5734.8,1080 5742.31,1106.8 5766.1,1093.03Z" style="fill:none;stroke:rgb(122,116,106);stroke-width:34.47px;"/>
                    <path d="M5766.1,1093.03C5742.31,1106.8 5734.8,1080 5734.8,1080L6163.08,712.154C6163.08,712.154 6324.96,479.791 6372.75,445.147C6420.54,410.503 6572.29,415.657 6572.29,415.657C6572.29,415.657 5789.9,1079.25 5766.1,1093.03ZM6208.05,691.54C6327.32,590.718 6440.16,495.08 6503.46,441.405C6491.58,442.051 6478.99,443.006 6466.44,444.4C6435.33,447.855 6404.11,453.128 6387.6,465.099C6352.37,490.633 6254.05,626.567 6208.05,691.54Z" style="fill:rgb(156,156,156);"/>
                </g>
                <g transform="matrix(1.41114,0,0,1.41114,-4965.01,-255.636)">
                    <path d="M6381.89,383.862C6367.52,387.599 6352.9,390.869 6339.91,398.285C6310.63,415.003 6288.66,446.973 6272.7,475.916" style="fill:none;stroke:rgb(202,202,202);stroke-width:13.8px;"/>
                </g>
            </g>
        </g>
    </g>
</svg>
