<?xml version="1.0" encoding="UTF-8" standalone="no"?>
<!DOCTYPE svg PUBLIC "-//W3C//DTD SVG 1.1//EN" "http://www.w3.org/Graphics/SVG/1.1/DTD/svg11.dtd">
<svg width="100%" height="100%" viewBox="0 0 1081 1081" version="1.1" xmlns="http://www.w3.org/2000/svg" xmlns:xlink="http://www.w3.org/1999/xlink" xml:space="preserve" xmlns:serif="http://www.serif.com/" style="fill-rule:evenodd;clip-rule:evenodd;stroke-linecap:square;stroke-linejoin:bevel;stroke-miterlimit:1.5;">
    <g transform="matrix(1,0,0,1,-3425,-1196)">
        <g transform="matrix(1,0,0,1,-1153.63,1196.57)">
            <rect id="Cip" x="4579.48" y="0" width="1080" height="1080" style="fill:none;"/>
            <clipPath id="_clip1">
                <rect id="Cip1" serif:id="Cip" x="4579.48" y="0" width="1080" height="1080"/>
            </clipPath>
            <g clip-path="url(#_clip1)">
                <g transform="matrix(1,0,0,1,4579.48,-1195.51)">
                    <rect x="-86.13" y="1135.13" width="1259.08" height="1190.83" style="fill:rgb(31,62,83);"/>
                </g>
                <g>
                    <g transform="matrix(1.20355,0,0,1,4494.25,-1195.51)">
                        <path d="M418.683,1964.23L418.683,2101.11L156.003,2101.11L156.003,2204.07" style="fill:none;stroke:rgb(204,166,143);stroke-width:61.21px;"/>
                    </g>
                    <g transform="matrix(1,0,0,1,4579.48,-1195.51)">
                        <path d="M764.344,1672.03L978.223,1672.03L978.223,1882.89L1037.23,1882.89" style="fill:none;stroke:rgb(204,166,143);stroke-width:67.72px;"/>
                    </g>
                    <g transform="matrix(1,0,0,1,4579.48,-1195.51)">
                        <path d="M764.344,1928.08L764.344,2081.71L1005.34,2081.71L1005.34,2204.07" style="fill:none;stroke:rgb(204,166,143);stroke-width:67.72px;"/>
                    </g>
                    <g transform="matrix(1,0,0,1,4579.48,-1195.51)">
                        <path d="M287.343,1777.46L129.607,1777.46L129.607,1519.07L52.297,1519.07" style="fill:none;stroke:rgb(204,166,143);stroke-width:67.72px;"/>
                    </g>
                    <g transform="matrix(1,0,0,1,4579.48,-1195.51)">
                        <path d="M373.946,1481.77L373.946,1337.17L125.726,1337.17L125.726,1258.06" style="fill:none;stroke:rgb(204,166,143);stroke-width:67.72px;"/>
                    </g>
                    <g transform="matrix(1,0,0,1,4579.48,-1195.51)">
                        <path d="M571.558,1481.77L571.558,1328.87L708.923,1328.87L708.923,1258.06" style="fill:none;stroke:rgb(204,166,143);stroke-width:67.72px;"/>
                    </g>
                    <g transform="matrix(1,0,0,1,4579.48,-1195.51)">
                        <path d="M764.344,1519.07L918.676,1519.07L918.676,1361.22L1005.34,1361.22" style="fill:none;stroke:rgb(204,166,143);stroke-width:67.72px;"/>
                    </g>
                    <g transform="matrix(1,0,0,1,4579.48,-1195.51)">
                        <path d="M571.558,1942L571.558,2068.52L640.24,2068.52L640.24,2204.07" style="fill:none;stroke:rgb(204,166,143);stroke-width:67.72px;"/>
                    </g>
                </g>
                <g transform="matrix(0.914709,0,0,0.914709,4624.68,-1049.73)">
                    <path d="M820.674,1461.13C820.674,1452.94 817.421,1445.09 811.631,1439.3C805.841,1433.51 797.988,1430.26 789.799,1430.26L270.253,1430.26C262.064,1430.26 254.211,1433.51 248.421,1439.3C242.631,1445.09 239.378,1452.94 239.378,1461.13L239.378,1957.14C239.378,1965.33 242.631,1973.18 248.421,1978.97C254.211,1984.76 262.064,1988.02 270.253,1988.02L789.799,1988.02C797.988,1988.02 805.841,1984.76 811.631,1978.97C817.421,1973.18 820.674,1965.33 820.674,1957.14L820.674,1461.13Z" style="fill:rgb(226,139,0);"/>
                    <path d="M820.674,1461.13L820.674,1957.14C820.674,1965.33 817.421,1973.18 811.631,1978.97C805.841,1984.76 797.988,1988.02 789.799,1988.02L270.253,1988.02C262.064,1988.02 254.211,1984.76 248.421,1978.97C242.631,1973.18 239.378,1965.33 239.378,1957.14L239.378,1461.13C239.378,1452.94 242.631,1445.09 248.421,1439.3C254.211,1433.51 262.064,1430.26 270.253,1430.26L789.799,1430.26C797.988,1430.26 805.841,1433.51 811.631,1439.3C817.421,1445.09 820.674,1452.94 820.674,1461.13ZM301.985,1492.86L301.985,1925.41L758.067,1925.41L758.067,1492.86L301.985,1492.86Z" style="fill:rgb(255,170,0);"/>
                </g>
            </g>
        </g>
    </g>
</svg>
