<?xml version="1.0" encoding="UTF-8" standalone="no"?>
<!DOCTYPE svg PUBLIC "-//W3C//DTD SVG 1.1//EN" "http://www.w3.org/Graphics/SVG/1.1/DTD/svg11.dtd">
<svg width="100%" height="100%" viewBox="0 0 1081 1081" version="1.1" xmlns="http://www.w3.org/2000/svg" xmlns:xlink="http://www.w3.org/1999/xlink" xml:space="preserve" xmlns:serif="http://www.serif.com/" style="fill-rule:evenodd;clip-rule:evenodd;stroke-linejoin:round;stroke-miterlimit:2;">
    <g transform="matrix(1,0,0,1,-3430,-2369)">
        <g transform="matrix(1,0,0,1,-1166.97,2369.51)">
            <rect id="Jazyky" x="4596.97" y="0" width="1080" height="1080" style="fill:none;"/>
            <clipPath id="_clip1">
                <rect id="Jazyky1" serif:id="Jazyky" x="4596.97" y="0" width="1080" height="1080"/>
            </clipPath>
            <g clip-path="url(#_clip1)">
                <g transform="matrix(1,0,0,1,4596.97,-2365.52)">
                    <rect x="-137.785" y="2265.58" width="1521.99" height="1381.4" style="fill:rgb(113,206,128);"/>
                    <path d="M1384.21,2265.58L1384.21,3646.99L-137.785,3646.99L-137.785,2265.58L1384.21,2265.58ZM1347.85,2301.94C1347.85,2301.94 -101.428,2301.94 -101.428,2301.94C-101.428,2301.94 -101.428,3610.63 -101.428,3610.63L1347.85,3610.63L1347.85,2301.94Z"/>
                </g>
                <g>
                    <g transform="matrix(-0.904957,0,0,0.904957,8769.73,-1570.7)">
                        <path d="M3510.51,2651.79C3510.51,2654.15 3509.76,2656.44 3508.36,2658.34C3499.85,2669.89 3468.28,2712.72 3452.29,2734.42C3450.14,2737.33 3449.56,2741.1 3450.72,2744.53C3451.88,2747.95 3454.64,2750.59 3458.12,2751.59C3476.39,2756.87 3505.96,2765.42 3517.21,2768.67C3520.08,2769.5 3522.49,2771.45 3523.89,2774.09C3542.66,2808.71 3579.33,2832.23 3621.45,2832.23L4225.77,2832.23C4287,2832.23 4336.71,2782.52 4336.71,2721.29L4336.71,2499.41C4336.71,2438.19 4287,2388.48 4225.77,2388.48L3621.45,2388.48C3560.22,2388.48 3510.51,2438.19 3510.51,2499.41L3510.51,2651.79Z" style="fill:rgb(115,19,69);"/>
                    </g>
                    <g transform="matrix(0.884126,0,0,0.884126,1726.01,-1467.86)">
                        <g transform="matrix(1,0,0,1,-535.364,-12.2528)">
                            <path d="M4311.71,2665.44C4311.71,2666.5 4311.56,2667.56 4311.26,2668.59C4310.28,2671.98 4307.88,2680.28 4306.03,2686.64C4304.63,2691.47 4300.2,2694.8 4295.17,2694.8C4267.54,2694.8 4180.26,2694.8 4148.95,2694.8C4142.71,2694.8 4137.64,2689.73 4137.64,2683.49C4137.64,2648.22 4137.64,2540.64 4137.64,2507.93C4137.64,2502.39 4141.65,2497.67 4147.12,2496.77C4157.97,2495 4168.83,2493.55 4179.68,2492.4C4193.7,2490.92 4208.04,2490.18 4222.71,2490.18C4236.94,2490.18 4249.58,2491.99 4260.64,2495.6C4271.7,2499.22 4281,2504.47 4288.56,2511.37C4296.11,2518.27 4301.86,2526.7 4305.8,2536.66C4309.74,2546.62 4311.71,2558.01 4311.71,2570.81C4311.71,2570.81 4311.71,2652.87 4311.71,2665.44ZM4272.32,2668.19C4278.57,2668.19 4283.63,2663.13 4283.63,2656.88C4283.63,2631.17 4283.63,2570.49 4283.63,2570.49C4283.63,2560.52 4282.12,2552.04 4279.11,2545.03C4276.1,2538.03 4271.73,2532.28 4265.98,2527.79C4260.23,2523.3 4253.25,2520.02 4245.04,2517.94C4236.83,2515.86 4227.47,2514.82 4216.96,2514.82C4205.36,2514.82 4195.28,2515.37 4186.74,2516.46C4182.41,2517.01 4178.44,2517.59 4174.84,2518.17C4169.39,2519.08 4165.4,2523.8 4165.4,2529.32C4165.4,2555.42 4165.4,2628.64 4165.4,2656.88C4165.4,2663.13 4170.46,2668.19 4176.71,2668.19C4199.29,2668.19 4249.74,2668.19 4272.32,2668.19Z" style="fill:white;fill-rule:nonzero;"/>
                        </g>
                        <g transform="matrix(1,0,0,1,507.148,0)">
                            <path d="M3800.1,2492.98C3803.33,2492.98 3806.41,2494.36 3808.56,2496.78C3810.7,2499.19 3811.71,2502.41 3811.33,2505.62C3810.99,2508.53 3810.61,2511.69 3810.2,2515.1C3810.2,2515.13 3810.2,2515.16 3810.19,2515.19C3809.32,2523.07 3808.17,2533.34 3806.75,2546.02C3805.33,2558.72 3803.52,2574.42 3801.33,2593.14C3801.33,2593.15 3801.33,2593.16 3801.33,2593.18C3799.25,2611.56 3796.05,2627.18 3791.72,2640.03C3787.4,2652.89 3781.79,2663.38 3774.89,2671.48C3768,2679.58 3759.76,2685.49 3750.18,2689.21C3740.6,2692.94 3729.51,2694.8 3716.93,2694.8C3716.93,2694.8 3650.71,2694.8 3625.34,2694.8C3619.74,2694.8 3614.99,2690.7 3614.16,2685.17C3609.19,2652.17 3592.85,2543.62 3587.18,2505.97C3586.69,2502.71 3587.64,2499.41 3589.79,2496.91C3591.94,2494.41 3595.07,2492.98 3598.37,2492.98C3600.53,2492.98 3602.74,2492.98 3604.8,2492.98C3610.43,2492.98 3615.21,2497.12 3616,2502.7C3619.12,2524.7 3626.73,2578.33 3630.29,2603.43C3630.77,2606.8 3632.74,2609.77 3635.65,2611.53C3638.57,2613.28 3642.11,2613.64 3645.32,2612.49C3646.82,2611.95 3648.27,2611.42 3649.68,2610.88C3654.88,2608.91 3659.5,2606.59 3663.56,2603.9C3667.61,2601.22 3671.16,2598.02 3674.23,2594.3C3677.29,2590.58 3679.98,2586.06 3682.28,2580.75C3684.57,2575.44 3686.52,2569.14 3688.11,2561.87C3689.69,2554.6 3690.97,2546.05 3691.96,2536.22C3691.96,2536.19 3691.97,2536.16 3691.97,2536.12C3692.51,2531.1 3693.06,2526.05 3693.61,2520.97C3694.15,2515.93 3694.69,2511.34 3695.23,2507.21C3695.24,2507.14 3695.25,2507.06 3695.26,2506.99C3695.41,2505.64 3695.56,2504.32 3695.71,2503.01C3696.36,2497.29 3701.2,2492.98 3706.95,2492.98C3708.95,2492.98 3711.07,2492.98 3713.14,2492.98C3716.36,2492.98 3719.43,2494.35 3721.58,2496.75C3723.72,2499.16 3724.74,2502.36 3724.38,2505.56C3724.36,2505.72 3724.34,2505.87 3724.33,2506.02C3724.32,2506.08 3724.31,2506.15 3724.3,2506.22C3723.76,2510.35 3723.22,2515.08 3722.67,2520.4C3722.12,2525.76 3721.52,2531.56 3720.87,2537.8C3720.87,2537.81 3720.86,2537.82 3720.86,2537.84C3719.33,2552.93 3716.87,2565.98 3713.48,2576.97C3710.08,2587.97 3705.16,2597.5 3698.7,2605.55C3692.24,2613.59 3683.95,2620.41 3673.82,2625.99C3665.81,2630.41 3656.27,2634.41 3645.2,2638.01C3639.98,2639.71 3636.74,2644.92 3637.52,2650.36C3637.89,2652.99 3638.3,2655.85 3638.68,2658.49C3639.48,2664.06 3644.25,2668.19 3649.87,2668.19C3670.65,2668.19 3717.25,2668.19 3717.25,2668.19C3723.82,2668.19 3730.03,2667.13 3735.89,2664.99C3741.75,2662.86 3747.09,2659.05 3751.9,2653.58C3756.72,2648.11 3760.88,2640.63 3764.38,2631.16C3767.88,2621.71 3770.51,2609.72 3772.26,2595.19C3772.26,2595.15 3772.27,2595.1 3772.27,2595.06C3774.68,2576.91 3776.65,2561.44 3778.18,2548.64C3779.71,2535.86 3780.91,2525.31 3781.78,2516.99C3781.79,2516.97 3781.79,2516.94 3781.79,2516.91C3782.36,2511.86 3782.86,2507.27 3783.28,2503.16C3783.86,2497.38 3788.72,2492.98 3794.53,2492.98C3796.34,2492.98 3798.24,2492.98 3800.1,2492.98Z" style="fill:white;fill-rule:nonzero;"/>
                        </g>
                        <g transform="matrix(1,0,0,1,63.7961,0)">
                            <path d="M3995.76,2544.21C3995.76,2547.28 3995.62,2550.51 3995.35,2553.9C3995.08,2557.27 3994.83,2559.99 3994.62,2562.07C3994.61,2562.1 3994.61,2562.12 3994.61,2562.15C3994.47,2563.57 3990.13,2608.05 3990.02,2609.22C3990.01,2609.23 3990.01,2609.25 3990.01,2609.26C3989.36,2615.72 3988.32,2622.17 3986.89,2628.62C3985.47,2635.08 3983.53,2641.26 3981.07,2647.17C3978.6,2653.09 3975.59,2658.67 3972.03,2663.92C3968.47,2669.18 3964.23,2673.83 3959.31,2677.88C3954.16,2682.15 3948.14,2685.41 3941.24,2687.65C3934.35,2689.9 3927.26,2691.54 3919.98,2692.58C3912.7,2693.62 3905.61,2694.22 3898.71,2694.39C3898.14,2694.4 3897.58,2694.41 3897.02,2694.43C3893.3,2694.51 3889.78,2692.77 3887.6,2689.76C3885.41,2686.76 3884.85,2682.87 3886.08,2679.36C3886.14,2679.2 3886.2,2679.04 3886.25,2678.88C3887.8,2674.48 3891.88,2671.49 3896.53,2671.33C3897.34,2671.3 3898.18,2671.27 3899.04,2671.23C3902.98,2671.07 3907.11,2670.68 3911.44,2670.08C3915.76,2669.48 3920.09,2668.6 3924.41,2667.45C3928.74,2666.3 3932.59,2664.74 3935.99,2662.78C3940.04,2660.48 3943.6,2657.52 3946.66,2653.91C3949.73,2650.3 3952.33,2646.22 3954.46,2641.67C3956.6,2637.13 3958.32,2632.26 3959.63,2627.06C3960.95,2621.87 3961.87,2616.6 3962.42,2611.25C3962.42,2611.23 3962.43,2611.2 3962.43,2611.18C3962.56,2609.82 3966.76,2565.91 3966.86,2564.92C3966.86,2564.9 3966.86,2564.89 3966.86,2564.87C3966.97,2563.77 3967.16,2561.7 3967.43,2558.66C3967.71,2555.6 3967.85,2552.7 3967.85,2549.96C3967.85,2544.7 3966.91,2540.05 3965.05,2536C3963.19,2531.95 3960.54,2528.56 3957.09,2525.82C3953.64,2523.08 3949.45,2521 3944.53,2519.58C3939.6,2518.16 3934.13,2517.45 3928.11,2517.45C3928.11,2517.45 3879.56,2517.45 3856.98,2517.45C3853.98,2517.45 3851.1,2516.25 3848.98,2514.13C3846.86,2512.01 3845.67,2509.13 3845.67,2506.13C3845.67,2486.67 3845.67,2447.06 3845.67,2427.6C3845.67,2424.6 3846.86,2421.72 3848.98,2419.6C3851.1,2417.48 3853.98,2416.29 3856.98,2416.29C3858.67,2416.29 3860.42,2416.29 3862.11,2416.29C3865.11,2416.29 3867.99,2417.48 3870.11,2419.6C3872.23,2421.72 3873.42,2424.6 3873.42,2427.6C3873.42,2442.11 3873.42,2467.15 3873.42,2481.67C3873.42,2484.67 3874.61,2487.54 3876.73,2489.66C3878.86,2491.78 3881.73,2492.98 3884.73,2492.98C3902.14,2492.98 3933.52,2492.98 3933.52,2492.98C3942.94,2492.98 3951.48,2494.26 3959.14,2496.84C3966.81,2499.41 3973.35,2502.99 3978.77,2507.59C3984.18,2512.19 3988.37,2517.61 3991.33,2523.85C3994.28,2530.09 3995.76,2536.88 3995.76,2544.21Z" style="fill:white;fill-rule:nonzero;"/>
                        </g>
                        <g transform="matrix(1,0,0,1,-207.776,0)">
                            <path d="M4075.24,2683.49C4075.24,2686.49 4074.05,2689.36 4071.93,2691.48C4069.81,2693.61 4066.93,2694.8 4063.93,2694.8C4062.24,2694.8 4060.49,2694.8 4058.8,2694.8C4055.8,2694.8 4052.92,2693.61 4050.8,2691.48C4048.68,2689.36 4047.49,2686.49 4047.49,2683.49C4047.49,2648.09 4047.49,2539.68 4047.49,2504.29C4047.49,2501.29 4048.68,2498.41 4050.8,2496.29C4052.92,2494.17 4055.8,2492.98 4058.8,2492.98C4060.49,2492.98 4062.24,2492.98 4063.93,2492.98C4066.93,2492.98 4069.81,2494.17 4071.93,2496.29C4074.05,2498.41 4075.24,2501.29 4075.24,2504.29C4075.24,2539.68 4075.24,2648.09 4075.24,2683.49Z" style="fill:white;fill-rule:nonzero;"/>
                        </g>
                    </g>
                </g>
                <g transform="matrix(1,0,0,1,-115.977,-534.731)">
                    <g transform="matrix(0.904957,0,0,0.904957,1645.19,-1551.12)">
                        <path d="M3510.51,2651.79C3510.51,2654.15 3509.76,2656.44 3508.36,2658.34C3499.85,2669.89 3468.28,2712.72 3452.29,2734.42C3450.14,2737.33 3449.56,2741.1 3450.72,2744.53C3451.88,2747.95 3454.64,2750.59 3458.12,2751.59C3476.39,2756.87 3505.96,2765.42 3517.21,2768.67C3520.08,2769.5 3522.49,2771.45 3523.89,2774.09C3542.66,2808.71 3579.33,2832.23 3621.45,2832.23L4225.77,2832.23C4287,2832.23 4336.71,2782.52 4336.71,2721.29L4336.71,2499.41C4336.71,2438.19 4287,2388.48 4225.77,2388.48L3621.45,2388.48C3560.22,2388.48 3510.51,2438.19 3510.51,2499.41L3510.51,2651.79Z" style="fill:rgb(199,33,234);"/>
                    </g>
                    <g transform="matrix(0.884126,0,0,0.884126,1741.82,-1475.63)">
                        <path d="M3774.39,2679.42C3775.73,2682.9 3775.27,2686.82 3773.16,2689.89C3771.05,2692.96 3767.57,2694.8 3763.84,2694.8C3761.66,2694.8 3759.52,2694.8 3757.58,2694.8C3752.88,2694.8 3748.67,2691.89 3747,2687.49C3742.2,2674.79 3732.37,2648.79 3727.57,2636.09C3725.91,2631.69 3721.7,2628.78 3716.99,2628.78C3698.4,2628.78 3651.7,2628.78 3632.95,2628.78C3628.16,2628.78 3623.89,2631.79 3622.29,2636.3C3617.77,2649.01 3608.68,2674.57 3604.16,2687.28C3602.55,2691.78 3598.28,2694.8 3593.5,2694.8L3587.22,2694.8C3583.5,2694.8 3580.01,2692.96 3577.91,2689.89C3575.8,2686.83 3575.33,2682.91 3576.66,2679.44C3594.22,2633.66 3645.75,2499.32 3658.31,2466.57C3659.98,2462.2 3664.18,2459.31 3668.87,2459.31C3672.92,2459.31 3677.85,2459.31 3681.9,2459.31C3686.58,2459.31 3690.77,2462.19 3692.45,2466.56C3705.05,2499.28 3756.77,2633.63 3774.39,2679.42ZM3699.56,2603.99C3703.26,2603.99 3706.72,2602.18 3708.83,2599.14C3710.95,2596.11 3711.45,2592.24 3710.17,2588.77C3699.84,2560.71 3678.84,2503.68 3678.83,2503.65C3678.83,2503.65 3678.83,2503.64 3678.82,2503.64C3678.21,2501.96 3676.61,2500.84 3674.81,2500.84C3673.02,2500.83 3671.41,2501.95 3670.79,2503.63C3670.79,2503.63 3670.78,2503.64 3670.78,2503.64C3670.78,2503.65 3670.78,2503.65 3670.78,2503.65C3670.77,2503.68 3649.94,2560.75 3639.7,2588.8C3638.44,2592.27 3638.95,2596.13 3641.06,2599.16C3643.18,2602.18 3646.64,2603.99 3650.33,2603.99C3664.59,2603.99 3685.28,2603.99 3699.56,2603.99Z" style="fill:white;fill-rule:nonzero;"/>
                        <path d="M3950.93,2683.49C3950.93,2689.73 3945.87,2694.8 3939.62,2694.8C3938.2,2694.8 3936.74,2694.8 3935.31,2694.8C3929.06,2694.8 3924,2689.73 3924,2683.49C3924,2657.93 3924,2597.91 3924,2597.91C3924,2562.88 3910.97,2545.36 3884.92,2545.36C3871.78,2545.36 3860.72,2550.42 3851.74,2560.55C3842.77,2570.68 3838.28,2583.68 3838.28,2599.55C3838.28,2599.55 3838.28,2658.26 3838.28,2683.49C3838.28,2686.49 3837.09,2689.36 3834.97,2691.48C3832.85,2693.61 3829.97,2694.8 3826.97,2694.8L3822.66,2694.8C3816.41,2694.8 3811.35,2689.73 3811.35,2683.49C3811.35,2642.02 3811.35,2498.62 3811.35,2457.16C3811.35,2450.91 3816.41,2445.85 3822.66,2445.85C3824.09,2445.85 3825.54,2445.85 3826.97,2445.85C3833.22,2445.85 3838.28,2450.91 3838.28,2457.16C3838.28,2483.58 3838.28,2547.59 3838.28,2554.03C3838.28,2554.17 3838.34,2554.3 3838.43,2554.4C3838.53,2554.5 3838.66,2554.56 3838.8,2554.56C3838.83,2554.56 3838.85,2554.56 3838.87,2554.56C3838.91,2554.56 3838.95,2554.54 3838.97,2554.5C3851.89,2533.3 3870.27,2522.7 3894.11,2522.7C3931.99,2522.7 3950.93,2545.53 3950.93,2591.18C3950.93,2591.18 3950.93,2656.62 3950.93,2683.49Z" style="fill:white;fill-rule:nonzero;"/>
                        <path d="M4071.96,2698.74C4047.11,2698.74 4027.26,2690.88 4012.43,2675.17C3997.6,2659.46 3990.18,2638.64 3990.18,2612.69C3990.18,2584.44 3997.9,2562.39 4013.33,2546.51C4028.77,2530.64 4049.62,2522.7 4075.9,2522.7C4100.97,2522.7 4120.54,2530.42 4134.61,2545.85C4148.67,2561.29 4155.71,2582.69 4155.71,2610.06C4155.71,2636.88 4148.13,2658.37 4132.96,2674.52C4117.8,2690.66 4097.47,2698.74 4071.96,2698.74ZM4073.93,2545.36C4056.63,2545.36 4042.95,2551.24 4032.87,2563.01C4022.8,2574.78 4017.77,2591.01 4017.77,2611.7C4017.77,2631.63 4022.86,2647.34 4033.04,2658.83C4043.22,2670.33 4056.85,2676.08 4073.93,2676.08C4091.34,2676.08 4104.72,2670.44 4114.08,2659.16C4123.44,2647.89 4128.12,2631.85 4128.12,2611.05C4128.12,2590.03 4123.44,2573.83 4114.08,2562.44C4104.72,2551.05 4091.34,2545.36 4073.93,2545.36Z" style="fill:white;fill-rule:nonzero;"/>
                        <path d="M4225.66,2537.95C4225.66,2557.59 4225.66,2687.74 4225.66,2687.74C4225.66,2715.32 4220.11,2736.59 4208.99,2751.53C4197.88,2766.48 4181.98,2773.95 4161.29,2773.95C4156.44,2773.95 4151.69,2773.25 4147.02,2771.85C4142.3,2770.42 4139.07,2766.06 4139.07,2761.13C4138.96,2761 4138.96,2760.86 4138.96,2760.72C4138.96,2757.23 4140.57,2753.94 4143.32,2751.8C4146.08,2749.65 4149.67,2748.9 4153.05,2749.76C4156.09,2750.56 4159.05,2750.96 4161.95,2750.96C4186.47,2750.96 4198.73,2731.36 4198.73,2692.17C4198.73,2692.17 4198.73,2575.27 4198.73,2537.95C4198.73,2531.7 4203.8,2526.64 4210.04,2526.64C4211.47,2526.64 4212.93,2526.64 4214.35,2526.64C4220.6,2526.64 4225.66,2531.7 4225.66,2537.95ZM4212.53,2483.95C4207.71,2483.95 4203.6,2482.3 4200.21,2479.02C4196.82,2475.73 4195.12,2471.57 4195.12,2466.54C4195.12,2461.5 4196.82,2457.32 4200.21,2453.97C4203.6,2450.64 4207.71,2448.97 4212.53,2448.97C4217.45,2448.97 4221.64,2450.64 4225.09,2453.97C4228.54,2457.32 4230.26,2461.5 4230.26,2466.54C4230.26,2471.36 4228.54,2475.46 4225.09,2478.85C4221.64,2482.25 4217.45,2483.95 4212.53,2483.95Z" style="fill:white;fill-rule:nonzero;"/>
                    </g>
                </g>
            </g>
        </g>
    </g>
</svg>
