<?xml version="1.0" encoding="UTF-8" standalone="no"?>
<!DOCTYPE svg PUBLIC "-//W3C//DTD SVG 1.1//EN" "http://www.w3.org/Graphics/SVG/1.1/DTD/svg11.dtd">
<svg width="100%" height="100%" viewBox="0 0 1081 1081" version="1.1" xmlns="http://www.w3.org/2000/svg" xmlns:xlink="http://www.w3.org/1999/xlink" xml:space="preserve" xmlns:serif="http://www.serif.com/" style="fill-rule:evenodd;clip-rule:evenodd;stroke-linejoin:round;stroke-miterlimit:2;">
    <g transform="matrix(1,0,0,1,-2303,-1)">
        <g transform="matrix(1,0,0,1,1123.5,1.06616)">
            <rect id="Nákupní-košík" serif:id="kosik" x="1180" y="0" width="1080" height="1080" style="fill:none;"/>
            <clipPath id="_clip1">
                <rect id="Nákupní-košík1" serif:id="kosik" x="1180" y="0" width="1080" height="1080"/>
            </clipPath>
            <g clip-path="url(#_clip1)">
                <g id="NakupniKosik.afdesign" transform="matrix(1,0,0,1,1717.48,540)">
                    <g transform="matrix(1,0,0,1,-540,-540)">
                        <clipPath id="_clip2">
                            <rect x="0" y="0" width="1080" height="1080"/>
                        </clipPath>
                        <g clip-path="url(#_clip2)">
                            <g transform="matrix(0.992849,0,0,0.992849,2.94061,3.45484)">
                                <rect x="-2.962" y="-3.48" width="1087.78" height="1087.78" style="fill:rgb(225,110,154);"/>
                            </g>
                            <g transform="matrix(1,0,0,1,26.9228,-4.41367)">
                                <path d="M405.358,314.921C405.358,314.921 373.498,283.656 363.82,295.488C352.715,309.065 338.73,396.38 338.73,396.38C338.73,396.38 389.139,410.973 384.589,396.38C377.523,373.718 395.695,310.09 405.358,314.921Z" style="fill:rgb(150,150,45);"/>
                            </g>
                            <g transform="matrix(1.0531,0,0,1.0531,-75.5188,-22.9504)">
                                <circle cx="418.927" cy="578.536" r="200.702" style="fill:rgb(255,37,37);"/>
                                <clipPath id="_clip3">
                                    <circle cx="418.927" cy="578.536" r="200.702"/>
                                </clipPath>
                                <g clip-path="url(#_clip3)">
                                    <g transform="matrix(0.178728,-0.205987,0.717232,0.622319,-50.7922,470.152)">
                                        <ellipse cx="214.552" cy="425.288" rx="146.005" ry="195.011" style="fill:rgb(160,27,27);"/>
                                    </g>
                                </g>
                            </g>
                            <g transform="matrix(1.258,0.226124,-0.218028,1.21296,214.206,140.539)">
                                <path d="M616.434,86.743C616.434,86.743 549.235,89.243 515.776,86.743C481.433,84.178 441.16,71.35 410.376,71.35C383.447,71.35 331.069,86.743 331.069,86.743C331.069,86.743 319.228,130.572 319.228,161.367C319.228,203.212 332.253,272.097 332.253,314.129C332.253,345.299 347.646,402.515 347.646,430.136C347.646,454.21 331.069,503.541 331.069,503.541C424.579,503.539 519.766,509.873 616.434,503.541C616.434,503.541 602.225,453.837 602.225,426.616C602.225,392.469 614.066,341.475 616.434,298.656C618.802,255.838 631.827,206.209 631.827,170.891C631.827,143.236 616.434,86.743 616.434,86.743Z" style="fill:rgb(255,184,0);"/>
                                <clipPath id="_clip4">
                                    <path d="M616.434,86.743C616.434,86.743 549.235,89.243 515.776,86.743C481.433,84.178 441.16,71.35 410.376,71.35C383.447,71.35 331.069,86.743 331.069,86.743C331.069,86.743 319.228,130.572 319.228,161.367C319.228,203.212 332.253,272.097 332.253,314.129C332.253,345.299 347.646,402.515 347.646,430.136C347.646,454.21 331.069,503.541 331.069,503.541C424.579,503.539 519.766,509.873 616.434,503.541C616.434,503.541 602.225,453.837 602.225,426.616C602.225,392.469 614.066,341.475 616.434,298.656C618.802,255.838 631.827,206.209 631.827,170.891C631.827,143.236 616.434,86.743 616.434,86.743Z"/>
                                </clipPath>
                                <g clip-path="url(#_clip4)">
                                    <g transform="matrix(1,0,0,0.262792,-11.8532,446.815)">
                                        <path d="M616.434,86.743C616.434,86.743 549.235,89.243 515.776,86.743C481.433,84.178 441.16,71.35 410.376,71.35C383.447,71.35 331.069,86.743 331.069,86.743C331.069,86.743 319.228,130.572 319.228,161.367C319.228,203.212 332.253,272.097 332.253,314.129C332.253,345.299 347.646,402.515 347.646,430.136C347.646,454.21 331.069,503.541 331.069,503.541C424.579,503.539 519.766,509.873 616.434,503.541C616.434,503.541 602.225,453.837 602.225,426.616C602.225,392.469 614.066,341.475 616.434,298.656C618.802,255.838 631.827,206.209 631.827,170.891C631.827,143.236 616.434,86.743 616.434,86.743Z" style="fill:rgb(155,112,0);"/>
                                    </g>
                                    <rect x="241.208" y="163.468" width="426.27" height="101.831" style="fill:white;"/>
                                </g>
                            </g>
                            <g transform="matrix(0.728614,0,0,0.628319,300.786,401.096)">
                                <circle cx="418.927" cy="578.536" r="200.702" style="fill:rgb(196,88,11);"/>
                            </g>
                            <g transform="matrix(0.888006,0,0,0.632052,-10.2349,414.455)">
                                <circle cx="418.927" cy="578.536" r="200.702" style="fill:rgb(255,99,0);"/>
                            </g>
                            <g transform="matrix(0.788884,0.614543,-0.695858,0.893268,609.855,-94.0224)">
                                <path d="M366.272,94.621C366.272,84.042 356.547,75.453 344.568,75.453L332.325,75.453C320.346,75.453 310.62,84.042 310.62,94.621L310.62,488.476C310.62,499.055 320.346,507.644 332.325,507.644L344.568,507.644C356.547,507.644 366.272,499.055 366.272,488.476L366.272,94.621Z" style="fill:rgb(198,195,195);"/>
                            </g>
                            <g transform="matrix(1,0,0,1,-18.9364,94.8902)">
                                <path d="M1008.6,476.443C1010.63,469.804 1009.39,462.595 1005.26,457.014C1001.13,451.434 994.599,448.142 987.656,448.142C849.446,448.142 268.426,448.142 130.217,448.142C123.274,448.142 116.743,451.434 112.613,457.014C108.483,462.595 107.244,469.804 109.273,476.443C131.497,549.156 190.045,740.72 207.12,796.585C209.934,805.794 218.434,812.084 228.063,812.084L889.809,812.084C899.439,812.084 907.939,805.794 910.753,796.585C927.828,740.72 986.376,549.156 1008.6,476.443ZM293.459,779.469L271.549,741.521L253.326,773.084L231.47,708.258L241.907,690.179L215.114,643.772L211.714,649.661L255.478,779.469L293.459,779.469ZM406.329,779.469L384.42,741.521L362.51,779.469L406.329,779.469ZM519.2,779.469L497.29,741.521L475.381,779.469L519.2,779.469ZM632.07,779.469L610.161,741.521L588.251,779.469L632.07,779.469ZM744.941,779.469L723.031,741.521L701.122,779.469L744.941,779.469ZM857.811,779.469L835.902,741.521L813.992,779.469L857.811,779.469ZM414.062,690.179L440.855,736.587L467.648,690.179L440.855,643.772L414.062,690.179ZM639.803,690.179L666.596,736.587L693.389,690.179L666.596,643.772L639.803,690.179ZM301.191,690.179L327.984,736.587L354.778,690.179L327.984,643.772L301.191,690.179ZM526.932,690.179L553.726,736.587L580.519,690.179L553.726,643.772L526.932,690.179ZM752.673,690.179L779.467,736.587L806.26,690.179L779.467,643.772L752.673,690.179ZM882.853,720.159L902.609,661.562L892.337,643.772L865.544,690.179L882.853,720.159ZM470.497,592.431L497.29,638.838L524.084,592.431L497.29,546.023L470.497,592.431ZM244.756,592.431L271.549,638.838L298.343,592.431L271.549,546.023L244.756,592.431ZM357.626,592.431L384.42,638.838L411.213,592.431L384.42,546.023L357.626,592.431ZM696.238,592.431L723.031,638.838L749.825,592.431L723.031,546.023L696.238,592.431ZM583.367,592.431L610.161,638.838L636.954,592.431L610.161,546.023L583.367,592.431ZM809.108,592.431L835.902,638.838L862.695,592.431L835.902,546.023L809.108,592.431ZM931.443,576.039L921.979,592.431L924.465,596.736L931.443,576.039ZM188.32,494.682L215.114,541.089L241.907,494.682L239.62,490.721L303.478,490.721L301.191,494.682L327.984,541.089L354.778,494.682L352.491,490.721L416.349,490.721L414.062,494.682L440.855,541.089L467.648,494.682L465.361,490.721L529.219,490.721L526.932,494.682L553.726,541.089L580.519,494.682L578.232,490.721L642.09,490.721L639.803,494.682L666.596,541.089L693.389,494.682L691.103,490.721L754.96,490.721L752.673,494.682L779.467,541.089L806.26,494.682L803.973,490.721L867.831,490.721L865.544,494.682L892.337,541.089L919.131,494.682L916.844,490.721L190.607,490.721L188.32,494.682Z" style="fill:rgb(102,92,72);"/>
                            </g>
                        </g>
                    </g>
                </g>
            </g>
        </g>
    </g>
</svg>
