<?xml version="1.0" encoding="UTF-8" standalone="no"?>
<!DOCTYPE svg PUBLIC "-//W3C//DTD SVG 1.1//EN" "http://www.w3.org/Graphics/SVG/1.1/DTD/svg11.dtd">
<svg width="100%" height="100%" viewBox="0 0 1081 1081" version="1.1" xmlns="http://www.w3.org/2000/svg" xmlns:xlink="http://www.w3.org/1999/xlink" xml:space="preserve" xmlns:serif="http://www.serif.com/" style="fill-rule:evenodd;clip-rule:evenodd;stroke-linejoin:round;stroke-miterlimit:2;">
    <g transform="matrix(1,0,0,1,-1175,-1)">
        <g transform="matrix(1,0,0,1,-1184.99,1.06616)">
            <rect id="Maso" x="2360" y="0" width="1080" height="1080" style="fill:none;"/>
            <g id="Maso1" serif:id="Maso">
                <g transform="matrix(1,0,0,1,2360,0)">
                    <rect x="0" y="0" width="1080" height="1080" style="fill:rgb(255,120,174);"/>
                </g>
                <g transform="matrix(1.17017,-1.0187,1.0187,1.17017,1859.57,408.308)">
                    <g transform="matrix(0.711792,0,0,1,140.768,9.52712)">
                        <path d="M893.522,427.857C878.803,421.825 860.489,403.5 821.613,429.906C737.027,487.36 562.55,452.758 560.882,442.977L560.882,516.24C561.329,502.739 726.443,476.169 817.662,534.416C856.875,559.455 878.981,546.141 893.522,540C936.202,521.974 874.663,481.14 864.362,483.928C862.393,484.461 940.372,447.057 893.522,427.857Z" style="fill:white;"/>
                        <clipPath id="_clip1">
                            <path d="M893.522,427.857C878.803,421.825 860.489,403.5 821.613,429.906C737.027,487.36 562.55,452.758 560.882,442.977L560.882,516.24C561.329,502.739 726.443,476.169 817.662,534.416C856.875,559.455 878.981,546.141 893.522,540C936.202,521.974 874.663,481.14 864.362,483.928C862.393,484.461 940.372,447.057 893.522,427.857Z"/>
                        </clipPath>
                        <g clip-path="url(#_clip1)">
                            <g transform="matrix(1.4049,0,0,1,-181.445,-9.76871)">
                                <path d="M591.187,498.443C604.039,499.517 616.958,498.232 629.772,499.791C644.927,501.635 659.158,505.982 673.702,510.28C681.653,512.63 689.744,514.178 697.658,516.701C710.72,520.864 725.956,525.257 737.439,532.943C748.031,540.032 753.854,550.059 760.263,560.754C764.632,568.044 769.452,575.246 763.137,582.733C748.542,600.036 723.188,589.487 705.519,583.943C681.981,576.558 656.998,570.216 634.569,559.943C623.779,555.002 614.395,547.746 604.307,541.611C590.789,533.391 577.337,527.826 572.796,511.584" style="fill:rgb(206,206,206);"/>
                            </g>
                            <g transform="matrix(0.0547107,0.29554,-1.39286,0.130639,1652.33,187.059)">
                                <path d="M591.187,498.443C604.039,499.517 616.958,498.232 629.772,499.791C644.927,501.635 659.158,505.982 673.702,510.28C681.653,512.63 689.744,514.178 697.658,516.701C710.72,520.864 725.956,525.257 737.439,532.943C748.031,540.032 753.854,550.059 760.263,560.754C764.632,568.044 772.595,580.187 763.137,582.733C748.299,586.726 740.592,592.903 741.603,594.446C747.729,603.802 685.858,583.788 677.125,578.83C657.248,567.545 626.741,561.361 598.285,557.508C586.525,555.915 614.395,547.746 604.307,541.611C590.789,533.391 577.337,527.826 572.796,511.584" style="fill:rgb(206,206,206);"/>
                            </g>
                        </g>
                    </g>
                    <g transform="matrix(0.715572,0,0,0.715572,-10.0553,120.68)">
                        <path d="M326.194,325.835C326.194,325.835 616.586,318.682 703.506,374.435C736.341,395.496 809.775,425.025 846.282,470.411C865.195,493.923 862.152,532.416 847.138,565.548C821.8,621.462 745.82,658.936 713.167,679.655C625.429,735.327 326.194,703.413 326.194,703.413L326.194,325.835Z" style="fill:rgb(167,83,55);"/>
                        <clipPath id="_clip2">
                            <path d="M326.194,325.835C326.194,325.835 616.586,318.682 703.506,374.435C736.341,395.496 809.775,425.025 846.282,470.411C865.195,493.923 862.152,532.416 847.138,565.548C821.8,621.462 745.82,658.936 713.167,679.655C625.429,735.327 326.194,703.413 326.194,703.413L326.194,325.835Z"/>
                        </clipPath>
                        <g clip-path="url(#_clip2)">
                            <g transform="matrix(1.39748,0,0,1.39748,14.0521,-168.648)">
                                <path d="M237.022,594.272C285.726,583.305 338.978,597.539 388.246,589.255C435.658,581.284 493.758,553.502 540,540C565.062,532.682 576.318,517.897 598.284,503.815C605.792,499.002 623.052,482.464 632.348,482.126C640.37,481.835 650.031,491.62 655.222,496.712C680.809,521.813 687.238,556.691 681.283,590.941C668.245,665.938 601.697,725.337 534.111,753.536C439.09,793.181 332.47,783.901 240.022,742.319C198.903,723.824 148.205,688.502 173.234,636.801" style="fill:rgb(144,67,41);"/>
                            </g>
                        </g>
                    </g>
                    <g transform="matrix(0.245975,0,0,0.715572,89.4956,120.68)">
                        <ellipse cx="544.219" cy="514.624" rx="332.227" ry="188.789" style="fill:rgb(255,87,84);"/>
                    </g>
                    <g transform="matrix(0.0677874,0,0,0.197202,186.469,390.596)">
                        <ellipse cx="544.219" cy="514.624" rx="332.227" ry="188.789" style="fill:rgb(226,83,81);"/>
                        <path d="M544.219,265.061C667.112,265.061 784.62,285.217 876.753,323.605C980.483,366.825 1053.25,435.999 1053.25,514.624C1053.25,593.249 980.483,662.424 876.753,705.644C784.62,744.032 667.112,764.188 544.219,764.188C421.325,764.188 303.817,744.032 211.684,705.644C107.954,662.424 35.192,593.249 35.192,514.624C35.192,435.999 107.954,366.825 211.684,323.605C303.817,285.217 421.325,265.061 544.219,265.061ZM544.219,325.835C360.858,325.835 211.992,410.429 211.992,514.624C211.992,618.82 360.858,703.413 544.219,703.413C727.58,703.413 876.445,618.82 876.445,514.624C876.445,410.429 727.58,325.835 544.219,325.835Z" style="fill:rgb(255,108,106);"/>
                    </g>
                </g>
            </g>
        </g>
    </g>
</svg>
