<?xml version="1.0" encoding="UTF-8" standalone="no"?>
<!DOCTYPE svg PUBLIC "-//W3C//DTD SVG 1.1//EN" "http://www.w3.org/Graphics/SVG/1.1/DTD/svg11.dtd">
<svg width="100%" height="100%" viewBox="0 0 1081 1081" version="1.1" xmlns="http://www.w3.org/2000/svg" xmlns:xlink="http://www.w3.org/1999/xlink" xml:space="preserve" xmlns:serif="http://www.serif.com/" style="fill-rule:evenodd;clip-rule:evenodd;stroke-linecap:round;stroke-linejoin:round;stroke-miterlimit:1.5;">
    <g transform="matrix(1,0,0,1,-3421,-3)">
        <g transform="matrix(1,0,0,1,-39.4794,3.56641)">
            <rect id="Mleko" x="3461.23" y="0" width="1080" height="1080" style="fill:none;"/>
            <g id="Mleko1" serif:id="Mleko">
                <g transform="matrix(1,0,0,1,3461.23,0)">
                    <rect x="0" y="0" width="1080" height="1080" style="fill:rgb(228,86,142);"/>
                </g>
                <g transform="matrix(1,0,0,1,117.742,26.9844)">
                    <path d="M3945.14,194.61L3823.14,194.61C3823.14,194.61 3786.41,230.697 3753.87,262.676C3722.44,293.565 3704.74,335.786 3704.74,379.855L3704.74,861.994C3704.74,871.97 3708.7,881.538 3715.75,888.592C3722.81,895.646 3732.38,899.609 3742.35,899.609L4024.62,899.609C4034.6,899.609 4044.16,895.646 4051.22,888.592C4058.27,881.538 4062.24,871.97 4062.24,861.994L4062.24,382.313C4062.24,339.761 4045.73,298.869 4016.18,268.245C3983.4,234.268 3945.14,194.61 3945.14,194.61Z" style="fill:white;"/>
                    <path d="M3945.14,194.61L4016.18,268.245C4045.73,298.869 4062.24,339.761 4062.24,382.313L4062.24,861.994C4062.24,871.97 4058.27,881.538 4051.22,888.592C4044.16,895.646 4034.6,899.609 4024.62,899.609L3742.35,899.609C3732.38,899.609 3722.81,895.646 3715.75,888.592C3708.7,881.538 3704.74,871.97 3704.74,861.994L3704.74,379.855C3704.74,335.786 3722.44,293.565 3753.87,262.676L3823.14,194.61L3945.14,194.61ZM3751.55,852.797L4015.43,852.797L4015.43,382.313C4015.43,351.885 4003.62,322.645 3982.49,300.747L3925.26,241.422L3842.29,241.422L3786.68,296.065C3764.21,318.152 3751.55,348.343 3751.55,379.855C3751.55,379.855 3751.55,786.553 3751.55,852.797Z" style="fill:rgb(226,226,226);"/>
                </g>
                <g transform="matrix(0.724492,0,0,1,1143.83,2.23959)">
                    <rect x="3697.28" y="457.912" width="493.448" height="172.012" style="fill:rgb(255,0,0);"/>
                </g>
                <g transform="matrix(1.29609,0,0,1.29609,-1072.2,-95.9674)">
                    <g transform="matrix(69.4882,0,0,69.4882,4037.02,524.458)">
                    </g>
                    <text x="3791.07px" y="524.458px" style="font-family:'ErasITC-Demi', 'Eras Demi ITC', sans-serif;font-size:69.488px;fill:white;">Mleko</text>
                </g>
                <g transform="matrix(0.862079,0,0,1.00285,603.102,-7.63122)">
                    <path d="M4026.57,172.827C4026.57,169.579 4025.07,166.464 4022.39,164.167C4019.72,161.871 4016.1,160.58 4012.32,160.58C3980.35,160.58 3903.21,160.58 3871.24,160.58C3867.46,160.58 3863.84,161.871 3861.16,164.167C3858.49,166.464 3856.99,169.579 3856.99,172.827C3856.99,185.14 3856.99,204.014 3856.99,216.327C3856.99,219.575 3858.49,222.69 3861.16,224.987C3863.84,227.283 3867.46,228.574 3871.24,228.574C3903.21,228.574 3980.35,228.574 4012.32,228.574C4016.1,228.574 4019.72,227.283 4022.39,224.987C4025.07,222.69 4026.57,219.575 4026.57,216.327C4026.57,204.014 4026.57,185.14 4026.57,172.827Z" style="fill:rgb(255,0,0);"/>
                    <clipPath id="_clip1">
                        <path d="M4026.57,172.827C4026.57,169.579 4025.07,166.464 4022.39,164.167C4019.72,161.871 4016.1,160.58 4012.32,160.58C3980.35,160.58 3903.21,160.58 3871.24,160.58C3867.46,160.58 3863.84,161.871 3861.16,164.167C3858.49,166.464 3856.99,169.579 3856.99,172.827C3856.99,185.14 3856.99,204.014 3856.99,216.327C3856.99,219.575 3858.49,222.69 3861.16,224.987C3863.84,227.283 3867.46,228.574 3871.24,228.574C3903.21,228.574 3980.35,228.574 4012.32,228.574C4016.1,228.574 4019.72,227.283 4022.39,224.987C4025.07,222.69 4026.57,219.575 4026.57,216.327C4026.57,204.014 4026.57,185.14 4026.57,172.827Z"/>
                    </clipPath>
                    <g clip-path="url(#_clip1)">
                        <g transform="matrix(1.15999,0,0,0.997158,-637.017,57.8947)">
                            <path d="M3858.5,129.195L3934.6,129.195" style="fill:none;stroke:rgb(196,0,0);stroke-width:9.01px;"/>
                        </g>
                        <g transform="matrix(1.15999,0,0,0.997158,-651.73,73.6032)">
                            <path d="M3858.5,129.195L3934.6,129.195" style="fill:none;stroke:rgb(196,0,0);stroke-width:9.01px;"/>
                        </g>
                        <g transform="matrix(1.15999,0,0,0.997158,-622.304,89.3117)">
                            <path d="M3858.5,129.195L3934.6,129.195" style="fill:none;stroke:rgb(196,0,0);stroke-width:9.01px;"/>
                        </g>
                        <g transform="matrix(1.15999,0,0,0.997158,-666.443,42.1862)">
                            <path d="M3858.5,129.195L3934.6,129.195" style="fill:none;stroke:rgb(196,0,0);stroke-width:9.01px;"/>
                        </g>
                    </g>
                </g>
            </g>
        </g>
    </g>
</svg>
