<?xml version="1.0" encoding="UTF-8" standalone="no"?>
<!DOCTYPE svg PUBLIC "-//W3C//DTD SVG 1.1//EN" "http://www.w3.org/Graphics/SVG/1.1/DTD/svg11.dtd">
<svg width="100%" height="100%" viewBox="0 0 1081 1081" version="1.1" xmlns="http://www.w3.org/2000/svg" xmlns:xlink="http://www.w3.org/1999/xlink" xml:space="preserve" xmlns:serif="http://www.serif.com/" style="fill-rule:evenodd;clip-rule:evenodd;stroke-linejoin:round;stroke-miterlimit:2;">
    <g transform="matrix(1,0,0,1,-2302,-1196)">
        <g transform="matrix(1,0,0,1,-2276.71,1196.57)">
            <rect id="Nastroje" x="4579.48" y="0" width="1080" height="1080" style="fill:none;"/>
            <clipPath id="_clip1">
                <rect id="Nastroje1" serif:id="Nastroje" x="4579.48" y="0" width="1080" height="1080"/>
            </clipPath>
            <g clip-path="url(#_clip1)">
                <g transform="matrix(1,0,0,1,4579.48,-1195.51)">
                    <rect x="-86.13" y="1135.13" width="1259.08" height="1190.83" style="fill:rgb(29,87,126);"/>
                </g>
                <g transform="matrix(0.781696,-0.623659,0.623659,0.781696,764.616,3269.72)">
                    <g transform="matrix(0.861032,5.55112e-17,0,0.732988,2708.43,-856.975)">
                        <path d="M2776.57,1475.84L2776.57,1995.58L2827.63,1995.58L2827.63,1475.84L2827.72,1475.84L2835.55,1445.2L2820.11,1343.92L2784.18,1343.92L2768.74,1445.71L2776.57,1475.84L2776.57,1475.84Z" style="fill:rgb(165,165,165);"/>
                        <clipPath id="_clip2">
                            <path d="M2776.57,1475.84L2776.57,1995.58L2827.63,1995.58L2827.63,1475.84L2827.72,1475.84L2835.55,1445.2L2820.11,1343.92L2784.18,1343.92L2768.74,1445.71L2776.57,1475.84L2776.57,1475.84Z"/>
                        </clipPath>
                        <g clip-path="url(#_clip2)">
                            <g transform="matrix(1.1614,-8.79557e-17,0,1.46159,-474.308,-611.43)">
                                <path d="M2885.31,1300.95L2762.1,1300.95L2762.1,1420.46C2805.35,1433.31 2846.28,1432.5 2885.31,1420.46L2885.31,1300.95Z" style="fill:rgb(131,131,131);"/>
                            </g>
                        </g>
                    </g>
                    <g transform="matrix(1,0,0,1,2444.66,-1197.67)">
                        <path d="M2728.63,1781.02C2725.92,1769.3 2715.48,1761 2703.45,1761L2649.46,1761C2637.47,1761 2627.06,1769.25 2624.3,1780.91C2619.9,1799.61 2613.77,1825.59 2612.32,1831.76C2612.11,1832.66 2612,1833.58 2612,1834.5C2612,1855.07 2612,2098.42 2612,2179.16C2612,2186.01 2614.72,2192.58 2619.57,2197.43C2624.42,2202.28 2630.99,2205 2637.84,2205L2715.16,2205C2729.43,2205 2741,2193.43 2741,2179.16C2741,2098.59 2741,1856.15 2741,1835.8C2741,1834.89 2740.9,1833.99 2740.69,1833.1C2739.25,1826.88 2733.06,1800.12 2728.63,1781.02Z" style="fill:rgb(30,40,93);"/>
                        <clipPath id="_clip3">
                            <path d="M2728.63,1781.02C2725.92,1769.3 2715.48,1761 2703.45,1761L2649.46,1761C2637.47,1761 2627.06,1769.25 2624.3,1780.91C2619.9,1799.61 2613.77,1825.59 2612.32,1831.76C2612.11,1832.66 2612,1833.58 2612,1834.5C2612,1855.07 2612,2098.42 2612,2179.16C2612,2186.01 2614.72,2192.58 2619.57,2197.43C2624.42,2202.28 2630.99,2205 2637.84,2205L2715.16,2205C2729.43,2205 2741,2193.43 2741,2179.16C2741,2098.59 2741,1856.15 2741,1835.8C2741,1834.89 2740.9,1833.99 2740.69,1833.1C2739.25,1826.88 2733.06,1800.12 2728.63,1781.02Z"/>
                        </clipPath>
                        <g clip-path="url(#_clip3)">
                            <g transform="matrix(-1,1.11022e-16,0,1.03334,5448.78,-74.5432)">
                                <path d="M2728.52,1780.54C2725.88,1769.12 2715.4,1761 2703.3,1761C2687.39,1761 2665.51,1761 2649.61,1761C2637.55,1761 2627.1,1769.07 2624.41,1780.45C2619.98,1799.26 2613.73,1825.78 2612.3,1831.84C2612.1,1832.68 2612,1833.55 2612,1834.41C2612,1854.44 2612,2100 2612,2179.99C2612,2193.8 2623.57,2205 2637.84,2205C2660.31,2205 2692.69,2205 2715.16,2205C2729.43,2205 2741,2193.8 2741,2179.99C2741,2100.16 2741,1855.53 2741,1835.71C2741,1834.86 2740.9,1834.02 2740.71,1833.18C2739.3,1827.07 2732.97,1799.76 2728.52,1780.54Z" style="fill:rgb(20,24,50);"/>
                            </g>
                            <g transform="matrix(1,1.11022e-16,0,1.03334,-96.0727,-73.5203)">
                                <path d="M2728.52,1780.54C2725.88,1769.12 2715.4,1761 2703.3,1761C2687.39,1761 2665.51,1761 2649.61,1761C2637.55,1761 2627.1,1769.07 2624.41,1780.45C2619.98,1799.26 2613.73,1825.78 2612.3,1831.84C2612.1,1832.68 2612,1833.55 2612,1834.41C2612,1854.44 2612,2100 2612,2179.99C2612,2193.8 2623.57,2205 2637.84,2205C2660.31,2205 2692.69,2205 2715.16,2205C2729.43,2205 2741,2193.8 2741,2179.99C2741,2100.16 2741,1855.53 2741,1835.71C2741,1834.86 2740.9,1834.02 2740.71,1833.18C2739.3,1827.07 2732.97,1799.76 2728.52,1780.54Z" style="fill:rgb(20,24,50);"/>
                            </g>
                            <g transform="matrix(1,1.11022e-16,0,1.03334,-116.073,-73.5203)">
                                <path d="M2728.52,1780.54C2725.88,1769.12 2715.4,1761 2703.3,1761C2687.39,1761 2665.51,1761 2649.61,1761C2637.55,1761 2627.1,1769.07 2624.41,1780.45C2619.98,1799.26 2613.73,1825.78 2612.3,1831.84C2612.1,1832.68 2612,1833.55 2612,1834.41C2612,1854.44 2612,2100 2612,2179.99C2612,2193.8 2623.57,2205 2637.84,2205C2660.31,2205 2692.69,2205 2715.16,2205C2729.43,2205 2741,2193.8 2741,2179.99L2741,1835.71C2741,1834.86 2740.9,1834.02 2740.71,1833.18C2739.3,1827.07 2732.97,1799.76 2728.52,1780.54Z" style="fill:rgb(48,56,95);"/>
                            </g>
                            <g transform="matrix(-1,1.11022e-16,0,1.03334,5468.78,-74.5432)">
                                <path d="M2728.52,1780.54C2725.88,1769.12 2715.4,1761 2703.3,1761C2687.39,1761 2665.51,1761 2649.61,1761C2637.55,1761 2627.1,1769.07 2624.41,1780.45C2619.98,1799.26 2613.73,1825.78 2612.3,1831.84C2612.1,1832.68 2612,1833.55 2612,1834.41C2612,1854.44 2612,2100 2612,2179.99C2612,2193.8 2623.57,2205 2637.84,2205C2660.31,2205 2692.69,2205 2715.16,2205C2729.43,2205 2741,2193.8 2741,2179.99C2741,2100.16 2741,1855.53 2741,1835.71C2741,1834.86 2740.9,1834.02 2740.71,1833.18C2739.3,1827.07 2732.97,1799.76 2728.52,1780.54Z" style="fill:rgb(48,56,95);"/>
                            </g>
                        </g>
                    </g>
                </g>
                <g transform="matrix(1,0,0,1,2174.96,-1274.79)">
                    <circle cx="2633.41" cy="1908.14" r="114.708" style="fill:rgb(131,131,131);"/>
                    <clipPath id="_clip4">
                        <circle cx="2633.41" cy="1908.14" r="114.708"/>
                    </clipPath>
                    <g clip-path="url(#_clip4)">
                        <g transform="matrix(1,0,0,1,178.879,85.4037)">
                            <rect x="2426.93" y="1690.96" width="53.53" height="284.475" style="fill:rgb(177,177,177);"/>
                        </g>
                    </g>
                </g>
                <g transform="matrix(1,0,0,1,2354.04,-1010.17)">
                    <circle cx="2633.41" cy="1908.14" r="114.708" style="fill:rgb(131,131,131);"/>
                    <clipPath id="_clip5">
                        <circle cx="2633.41" cy="1908.14" r="114.708"/>
                    </clipPath>
                    <g clip-path="url(#_clip5)">
                        <g transform="matrix(1,0,0,1,180.682,77.0993)">
                            <rect x="2426.93" y="1690.96" width="53.53" height="284.475" style="fill:rgb(177,177,177);"/>
                        </g>
                        <g transform="matrix(6.12323e-17,1,-1,6.12323e-17,4467.58,-543.403)">
                            <rect x="2426.93" y="1690.96" width="53.53" height="284.475" style="fill:rgb(177,177,177);"/>
                        </g>
                    </g>
                </g>
                <g transform="matrix(0.910185,-6.16298e-32,0,1,2551.85,-1091.13)">
                    <rect x="3038" y="1380.47" width="104.983" height="202.093" style="fill:rgb(177,177,177);"/>
                    <clipPath id="_clip6">
                        <rect x="3038" y="1380.47" width="104.983" height="202.093"/>
                    </clipPath>
                    <g clip-path="url(#_clip6)">
                        <g transform="matrix(0.951482,-0.5,0.401955,0.633677,-438.536,2039.91)">
                            <rect x="3012.94" y="1417.54" width="128.779" height="25.507" style="fill:rgb(162,162,162);"/>
                        </g>
                        <g transform="matrix(0.951482,-0.5,0.401955,0.633677,-413.93,2066.66)">
                            <rect x="3012.94" y="1417.54" width="128.779" height="25.507" style="fill:rgb(162,162,162);"/>
                        </g>
                        <g transform="matrix(1.46188,-0.768213,0.401955,0.633677,-2007.21,2941.04)">
                            <rect x="3012.94" y="1417.54" width="128.779" height="25.507" style="fill:rgb(162,162,162);"/>
                        </g>
                        <g transform="matrix(1.46188,-0.768213,0.401955,0.633677,-1990.13,2975.88)">
                            <rect x="3012.94" y="1417.54" width="128.779" height="25.507" style="fill:rgb(162,162,162);"/>
                        </g>
                        <g transform="matrix(1.46188,-0.768213,0.401955,0.633677,-1981.92,3013.2)">
                            <rect x="3012.94" y="1417.54" width="128.779" height="25.507" style="fill:rgb(162,162,162);"/>
                        </g>
                        <g transform="matrix(1.46188,-0.768213,0.401955,0.633677,-1974.15,3043.49)">
                            <rect x="3012.94" y="1417.54" width="128.779" height="25.507" style="fill:rgb(162,162,162);"/>
                        </g>
                    </g>
                </g>
                <g transform="matrix(9.16676e-17,1.49705,-0.792738,4.85412e-17,6818.62,-3404.99)">
                    <path d="M2480.47,1690.96L2440.32,1690.96C2436.77,1690.96 2433.37,1693.62 2430.86,1698.36C2428.35,1703.1 2426.93,1709.53 2426.93,1716.23C2426.93,1770.2 2426.93,1896.19 2426.93,1950.16C2426.93,1956.87 2428.35,1963.29 2430.86,1968.03C2433.37,1972.77 2436.77,1975.44 2440.32,1975.44C2456.17,1975.44 2480.47,1975.44 2480.47,1975.44L2480.47,1690.96Z" style="fill:rgb(131,131,131);"/>
                </g>
            </g>
        </g>
    </g>
</svg>
