<?xml version="1.0" encoding="UTF-8" standalone="no"?>
<!DOCTYPE svg PUBLIC "-//W3C//DTD SVG 1.1//EN" "http://www.w3.org/Graphics/SVG/1.1/DTD/svg11.dtd">
<svg width="100%" height="100%" viewBox="0 0 1081 1081" version="1.1" xmlns="http://www.w3.org/2000/svg" xmlns:xlink="http://www.w3.org/1999/xlink" xml:space="preserve" xmlns:serif="http://www.serif.com/" style="fill-rule:evenodd;clip-rule:evenodd;stroke-linejoin:round;stroke-miterlimit:2;">
    <g transform="matrix(1,0,0,1,-1175,-1191)">
        <g transform="matrix(1,0,0,1,-3408.57,1191.61)">
            <rect id="Oprava" x="4583.58" y="0" width="1080" height="1080" style="fill:none;"/>
            <clipPath id="_clip1">
                <rect id="Oprava1" serif:id="Oprava" x="4583.58" y="0" width="1080" height="1080"/>
            </clipPath>
            <g clip-path="url(#_clip1)">
                <g transform="matrix(1,0,0,1,4583.58,-1195.51)">
                    <rect x="-86.13" y="1135.13" width="1259.08" height="1190.83" style="fill:rgb(38,105,149);"/>
                </g>
                <g transform="matrix(1.61492,-0.478083,0.478083,1.61492,-3255.55,2596.21)">
                    <g transform="matrix(1,-1.11022e-16,-1.11022e-16,1.25971,3430.84,-1603.02)">
                        <path d="M1835.67,1488.64C1835.67,1477.37 1824.15,1468.22 1809.95,1468.22L1758.5,1468.22C1744.3,1468.22 1732.78,1477.37 1732.78,1488.64L1732.78,2034.79C1732.78,2046.06 1744.3,2055.21 1758.5,2055.21L1809.95,2055.21C1824.15,2055.21 1835.67,2046.06 1835.67,2034.79L1835.67,1488.64Z" style="fill:rgb(191,135,68);"/>
                        <clipPath id="_clip2">
                            <path d="M1835.67,1488.64C1835.67,1477.37 1824.15,1468.22 1809.95,1468.22L1758.5,1468.22C1744.3,1468.22 1732.78,1477.37 1732.78,1488.64L1732.78,2034.79C1732.78,2046.06 1744.3,2055.21 1758.5,2055.21L1809.95,2055.21C1824.15,2055.21 1835.67,2046.06 1835.67,2034.79L1835.67,1488.64Z"/>
                        </clipPath>
                        <g clip-path="url(#_clip2)">
                            <g transform="matrix(1.24123,4.37362e-16,0,1.023,-592.291,-135.556)">
                                <path d="M1835.67,1468.22L1732.78,1468.22C1745.34,1668.09 1737.23,1862.99 1732.78,2055.21L1835.67,2055.21C1894.91,1852.65 1910.15,1655.05 1835.67,1468.22Z" style="fill:rgb(192,146,90);"/>
                            </g>
                        </g>
                    </g>
                    <g transform="matrix(0.717039,0,0,0.813187,3939.42,-939.443)">
                        <rect x="1696.14" y="1418.16" width="173.326" height="89.261" style="fill:rgb(129,90,44);"/>
                    </g>
                    <g transform="matrix(1.02831,0,0,1.53937,3379.9,-1984.37)">
                        <path d="M1986.46,1426.95C1989.57,1424.45 1989.67,1420.85 1986.69,1418.28C1975.36,1408.49 1948.36,1385.18 1939.19,1377.25C1937.22,1375.56 1934.19,1374.57 1930.99,1374.57L1592.8,1374.57C1587.07,1374.57 1582.43,1377.67 1582.43,1381.49C1582.43,1398.83 1582.43,1443.95 1582.43,1461.29C1582.43,1463.13 1583.52,1464.89 1585.47,1466.19C1587.41,1467.49 1590.05,1468.22 1592.8,1468.22L1930.06,1468.22C1933.13,1468.22 1936.05,1467.31 1938.02,1465.73C1947.29,1458.31 1974.78,1436.3 1986.46,1426.95Z" style="fill:rgb(184,195,194);"/>
                        <clipPath id="_clip3">
                            <path d="M1986.46,1426.95C1989.57,1424.45 1989.67,1420.85 1986.69,1418.28C1975.36,1408.49 1948.36,1385.18 1939.19,1377.25C1937.22,1375.56 1934.19,1374.57 1930.99,1374.57L1592.8,1374.57C1587.07,1374.57 1582.43,1377.67 1582.43,1381.49C1582.43,1398.83 1582.43,1443.95 1582.43,1461.29C1582.43,1463.13 1583.52,1464.89 1585.47,1466.19C1587.41,1467.49 1590.05,1468.22 1592.8,1468.22L1930.06,1468.22C1933.13,1468.22 1936.05,1467.31 1938.02,1465.73C1947.29,1458.31 1974.78,1436.3 1986.46,1426.95Z"/>
                        </clipPath>
                        <g clip-path="url(#_clip3)">
                            <g transform="matrix(0.973968,-5.32764e-18,5.89812e-18,0.649617,47.2348,515.684)">
                                <rect x="1537.48" y="1278.27" width="54.409" height="252.119" style="fill:rgb(221,221,221);"/>
                            </g>
                            <g transform="matrix(0.972472,0,0,0.649617,39.8461,515.684)">
                                <rect x="1537.48" y="1278.27" width="54.409" height="252.119" style="fill:rgb(229,255,252);"/>
                            </g>
                        </g>
                    </g>
                </g>
                <g transform="matrix(1,0,0,1,-26.4539,-42.3263)">
                    <g transform="matrix(0.10605,0.183684,-13.9716,8.0665,29597.9,-14028.6)">
                        <rect x="1432.66" y="1781.1" width="172.563" height="22.206" style="fill:rgb(125,129,138);"/>
                        <clipPath id="_clip4">
                            <rect x="1432.66" y="1781.1" width="172.563" height="22.206"/>
                        </clipPath>
                        <g clip-path="url(#_clip4)">
                            <g transform="matrix(1,0,0,1,119.632,0.604381)">
                                <rect x="1432.66" y="1781.1" width="172.563" height="22.206" style="fill:rgb(161,161,161);"/>
                            </g>
                        </g>
                    </g>
                    <g transform="matrix(0.5,0.866025,-0.866025,0.5,5666.82,-1593.95)">
                        <path d="M1605.22,1788.42C1605.22,1784.38 1601.94,1781.1 1597.89,1781.1L1439.99,1781.1C1435.94,1781.1 1432.66,1784.38 1432.66,1788.42L1432.66,1795.97C1432.66,1800.02 1435.94,1803.3 1439.99,1803.3L1597.89,1803.3C1601.94,1803.3 1605.22,1800.02 1605.22,1795.97L1605.22,1788.42Z" style="fill:rgb(190,191,194);"/>
                    </g>
                </g>
                <g transform="matrix(1,0,0,1,3430.84,-1190.55)">
                    <rect x="1123.95" y="1190.55" width="185.832" height="1225.51" style="fill:rgb(35,43,63);"/>
                </g>
            </g>
        </g>
    </g>
</svg>
