<?xml version="1.0" encoding="UTF-8" standalone="no"?>
<!DOCTYPE svg PUBLIC "-//W3C//DTD SVG 1.1//EN" "http://www.w3.org/Graphics/SVG/1.1/DTD/svg11.dtd">
<svg width="100%" height="100%" viewBox="0 0 1081 1081" version="1.1" xmlns="http://www.w3.org/2000/svg" xmlns:xlink="http://www.w3.org/1999/xlink" xml:space="preserve" xmlns:serif="http://www.serif.com/" style="fill-rule:evenodd;clip-rule:evenodd;stroke-linejoin:round;stroke-miterlimit:2;">
    <g transform="matrix(1,0,0,1,-22,-3)">
        <g transform="matrix(1,0,0,1,22.2725,3.56641)">
            <rect id="Ovoce" x="0" y="0" width="1080" height="1080" style="fill:none;"/>
            <g id="Ovoce1" serif:id="Ovoce">
                <rect x="0" y="0" width="1080" height="1080" style="fill:rgb(255,156,193);"/>
                <g transform="matrix(0.859563,0,0,0.595438,159.172,306.474)">
                    <path d="M563.489,245.875C558.7,238.534 558.94,226.961 564.025,220.047C569.11,213.133 577.127,213.48 581.917,220.821C596.339,240.953 604.385,263.343 608.849,287.433C614.931,320.253 613.183,356.779 609.259,397.038C607.406,411.215 597.929,420.553 588.109,417.878C578.288,415.203 571.82,401.522 573.673,387.346C579.09,354.424 583.13,324.436 579.856,296.558C577.763,278.733 572.956,261.816 563.489,245.875Z" style="fill:rgb(116,125,74);"/>
                </g>
                <g transform="matrix(-0.98942,-0.145081,-0.124276,0.847534,1524.91,237.81)">
                    <path d="M739.826,449.454C762.043,449.454 775.615,469.396 795.89,475.677C812.955,480.964 851.754,475.551 866.861,484.682C933.955,525.232 965.259,613.337 965.259,699.984C965.259,829.32 864.611,934.325 740.641,934.325C616.671,934.325 516.024,829.32 516.024,699.984C516.024,570.647 615.856,449.454 739.826,449.454Z" style="fill:rgb(218,0,39);"/>
                    <clipPath id="_clip1">
                        <path d="M739.826,449.454C762.043,449.454 775.615,469.396 795.89,475.677C812.955,480.964 851.754,475.551 866.861,484.682C933.955,525.232 965.259,613.337 965.259,699.984C965.259,829.32 864.611,934.325 740.641,934.325C616.671,934.325 516.024,829.32 516.024,699.984C516.024,570.647 615.856,449.454 739.826,449.454Z"/>
                    </clipPath>
                    <g clip-path="url(#_clip1)">
                        <g transform="matrix(-0.954832,-0.34689,-0.297145,1.11468,1633.71,214.28)">
                            <path d="M570.189,926.089C572.84,834.4 635.511,842.189 695.806,860.798C743.033,875.374 832.615,818.687 871.887,760.919C926.482,680.613 937.629,620.887 906.694,551.761C893.7,522.725 851.963,485.311 892.09,512.658C925.669,535.542 1012.06,680.437 1018.11,718.449C1024.44,758.248 1038.29,800.346 1024.49,840.087C1009.53,883.194 968.235,914.875 930.175,937.18C848.105,985.278 747.422,1021.76 652.563,997.387" style="fill:rgb(177,6,36);"/>
                        </g>
                    </g>
                </g>
                <g transform="matrix(-0.859563,0,0,0.595438,919.081,44.3858)">
                    <path d="M558.152,202.905C555.471,198.796 550.983,198.602 548.137,202.472C545.29,206.343 545.155,212.822 547.837,216.931C560.327,239.466 569.321,269.124 574.184,300.379C578.762,329.798 578.79,360.348 573.673,387.346C571.82,401.522 578.288,415.203 588.109,417.878C597.929,420.553 607.406,411.215 609.259,397.038C611.818,362.272 607.971,324.521 598.24,289.576C588.834,255.8 575.011,224.892 558.152,202.905Z" style="fill:rgb(116,125,74);"/>
                </g>
                <g transform="matrix(0.859563,0,0,0.859563,-29.2283,124.396)">
                    <path d="M283.72,602.815C367.831,431.511 396.387,425.322 407.804,344.406C421.171,249.667 439.464,215.372 466.162,189.622C481.156,175.16 545.905,178.777 551.874,179.607C574.064,182.69 624.943,230.918 635.988,376.173C643.298,472.312 649.44,460.496 742.913,602.551C797.107,684.911 776.471,822.682 722.786,888.971C669.889,954.288 551.659,918.957 495.981,918.957C441.053,918.957 322.821,946.436 276.277,882.54C227.761,815.937 239.691,692.489 283.72,602.815Z" style="fill:rgb(107,151,76);"/>
                    <clipPath id="_clip2">
                        <path d="M283.72,602.815C367.831,431.511 396.387,425.322 407.804,344.406C421.171,249.667 439.464,215.372 466.162,189.622C481.156,175.16 545.905,178.777 551.874,179.607C574.064,182.69 624.943,230.918 635.988,376.173C643.298,472.312 649.44,460.496 742.913,602.551C797.107,684.911 776.471,822.682 722.786,888.971C669.889,954.288 551.659,918.957 495.981,918.957C441.053,918.957 322.821,946.436 276.277,882.54C227.761,815.937 239.691,692.489 283.72,602.815Z"/>
                    </clipPath>
                    <g clip-path="url(#_clip2)">
                        <g transform="matrix(1.16338,0,0,1.16338,34.0037,-144.72)">
                            <path d="M410.642,920.139C437.668,912.508 467.635,906.138 491.785,891.416C547.158,857.658 584.647,781.505 569.82,716.324C561.53,679.882 541.375,644.773 525.108,611.198C483.198,524.693 465.804,424.326 516.237,337.291C852.579,852.987 776.64,1183.94 410.642,920.139Z" style="fill:rgb(100,134,77);"/>
                        </g>
                    </g>
                </g>
            </g>
        </g>
    </g>
</svg>
