<?xml version="1.0" encoding="UTF-8" standalone="no"?>
<!DOCTYPE svg PUBLIC "-//W3C//DTD SVG 1.1//EN" "http://www.w3.org/Graphics/SVG/1.1/DTD/svg11.dtd">
<svg width="100%" height="100%" viewBox="0 0 1080 1081" version="1.1" xmlns="http://www.w3.org/2000/svg" xmlns:xlink="http://www.w3.org/1999/xlink" xml:space="preserve" xmlns:serif="http://www.serif.com/" style="fill-rule:evenodd;clip-rule:evenodd;stroke-linecap:round;stroke-linejoin:round;stroke-miterlimit:1.5;">
    <g transform="matrix(1,0,0,1,-4556,-2360)">
        <g transform="matrix(1,0,0,1,-54.6088,2360.89)">
            <rect id="Psani" x="4610.61" y="0" width="1080" height="1080" style="fill:none;"/>
            <clipPath id="_clip1">
                <rect id="Psani1" serif:id="Psani" x="4610.61" y="0" width="1080" height="1080"/>
            </clipPath>
            <g clip-path="url(#_clip1)">
                <g transform="matrix(1.05335,0,0,1,4674.54,-2416.29)">
                    <rect x="-137.785" y="2265.58" width="1521.99" height="1381.4" style="fill:rgb(137,214,150);"/>
                    <path d="M1384.21,2265.58L1384.21,3646.99L-137.785,3646.99L-137.785,2265.58L1384.21,2265.58ZM1349.69,2301.94C1349.69,2301.94 -103.27,2301.94 -103.27,2301.94L-103.27,3610.63L1349.69,3610.63L1349.69,2301.94Z"/>
                </g>
                <g transform="matrix(1.45941,0,0,1,-2111.91,-2250.48)">
                    <path d="M5119.09,3163.1C5097.26,3155.82 5068.57,3139.76 5041.24,3131.64C5029.72,3128.22 5018.52,3126.34 5008.23,3127.25C4995.55,3128.38 4983.97,3132.13 4972.96,3137.34C4923.49,3160.73 4885.98,3212.78 4830.27,3225.21C4806.51,3230.51 4784.29,3229.68 4762.5,3226.45C4730.89,3221.77 4700.66,3210.86 4668.35,3204.05C4653.86,3199.74 4644.5,3179.08 4647.46,3157.94C4650.41,3136.8 4664.57,3123.14 4679.06,3127.45C4710.08,3139.45 4738.74,3155.21 4769.25,3165.01C4787.56,3170.9 4806.39,3174.93 4826.96,3173.85C4880.66,3171.02 4919.85,3126.44 4968.47,3112.23C4981.05,3108.55 4994.13,3106.58 5008.19,3107.71C5019.43,3108.61 5031.43,3112.58 5043.64,3118.41C5070.36,3131.18 5097.81,3152.1 5119.09,3163.1Z" style="fill:rgb(0,128,192);"/>
                </g>
                <g transform="matrix(2.0666,0,0,2.0666,-5168.03,-5255.75)">
                    <path d="M4984.32,2715.08C4981.26,2715.08 4978.62,2712.93 4977.99,2709.94C4975.43,2697.66 4968.96,2666.74 4966.39,2654.47C4965.77,2651.47 4963.13,2649.33 4960.07,2649.33C4947.01,2649.33 4913.2,2649.33 4900.15,2649.33C4897.09,2649.33 4894.45,2651.47 4893.82,2654.47C4891.25,2666.74 4884.79,2697.66 4882.22,2709.94C4881.59,2712.93 4878.95,2715.08 4875.89,2715.08C4869.78,2715.08 4859.73,2715.08 4853.64,2715.08C4850.66,2715.08 4848.13,2717.26 4847.69,2720.21C4844.15,2744.06 4829.2,2844.58 4823.35,2883.94C4822.76,2887.92 4823.93,2891.97 4826.56,2895.02C4829.19,2898.07 4833.03,2899.83 4837.06,2899.83L5018.79,2899.83C5022.82,2899.83 5026.65,2898.07 5029.29,2895.02C5031.92,2891.97 5033.09,2887.92 5032.5,2883.94C5026.65,2844.58 5011.7,2744.06 5008.16,2720.21C5007.72,2717.26 5005.19,2715.08 5002.2,2715.08C4997.12,2715.08 4989.42,2715.08 4984.32,2715.08Z" style="fill:rgb(0,23,87);"/>
                    <clipPath id="_clip2">
                        <path d="M4984.32,2715.08C4981.26,2715.08 4978.62,2712.93 4977.99,2709.94C4975.43,2697.66 4968.96,2666.74 4966.39,2654.47C4965.77,2651.47 4963.13,2649.33 4960.07,2649.33C4947.01,2649.33 4913.2,2649.33 4900.15,2649.33C4897.09,2649.33 4894.45,2651.47 4893.82,2654.47C4891.25,2666.74 4884.79,2697.66 4882.22,2709.94C4881.59,2712.93 4878.95,2715.08 4875.89,2715.08C4869.78,2715.08 4859.73,2715.08 4853.64,2715.08C4850.66,2715.08 4848.13,2717.26 4847.69,2720.21C4844.15,2744.06 4829.2,2844.58 4823.35,2883.94C4822.76,2887.92 4823.93,2891.97 4826.56,2895.02C4829.19,2898.07 4833.03,2899.83 4837.06,2899.83L5018.79,2899.83C5022.82,2899.83 5026.65,2898.07 5029.29,2895.02C5031.92,2891.97 5033.09,2887.92 5032.5,2883.94C5026.65,2844.58 5011.7,2744.06 5008.16,2720.21C5007.72,2717.26 5005.19,2715.08 5002.2,2715.08C4997.12,2715.08 4989.42,2715.08 4984.32,2715.08Z"/>
                    </clipPath>
                    <g clip-path="url(#_clip2)">
                        <g transform="matrix(1,0,0,1.49836,-8.87863,-1447.74)">
                            <rect x="4830.04" y="2802.34" width="213.533" height="69.907" style="fill:rgb(101,198,255);"/>
                        </g>
                        <g transform="matrix(1.80276,0,0,1.80276,-3975.04,-2308.86)">
                            <path d="M4926.61,2811.55C4926.61,2811.55 4909.88,2833.9 4909.88,2843.48C4909.88,2852.72 4917.37,2860.21 4926.61,2860.21C4935.84,2860.21 4943.34,2852.72 4943.34,2843.48C4943.34,2833.9 4926.61,2811.55 4926.61,2811.55Z" style="fill:rgb(0,2,4);"/>
                        </g>
                        <g transform="matrix(1,0,0,1,-4.47665,-50.2991)">
                            <path d="M4952.18,2825.05C4955.1,2824.2 4958.64,2822.75 4961.72,2822.95C4967.32,2823.31 4972.52,2825.97 4978.07,2826.74C4982.44,2827.35 4986.41,2826.18 4990.69,2826.19C4996.51,2826.2 5001.98,2827.46 5007.95,2827.04" style="fill:none;stroke:rgb(0,2,4);stroke-width:9.01px;"/>
                        </g>
                        <g transform="matrix(1,0,0,1,-4.47665,-50.2991)">
                            <path d="M4964.34,2852.6C4969.9,2851.94 4975.61,2850.99 4981.22,2851.43C4988.9,2852.02 4996.93,2853.7 5004.69,2853.42" style="fill:none;stroke:rgb(0,2,4);stroke-width:9.01px;"/>
                        </g>
                        <g transform="matrix(1,0,0,1,-4.47665,-50.2991)">
                            <path d="M4955.91,2887.07C4961.35,2885.84 4966.92,2883.34 4972.53,2882.93C4977.44,2882.57 4982.32,2884.8 4987.19,2885.35C4992.26,2885.92 4997.41,2885.08 5002.48,2885.02" style="fill:none;stroke:rgb(0,2,4);stroke-width:9.01px;"/>
                        </g>
                    </g>
                </g>
                <g transform="matrix(1.30255,0,0,1.30255,-1411.7,-125.788)">
                    <g transform="matrix(0.51295,0.0965097,-0.152406,0.810041,2993.36,-2124.35)">
                        <path d="M5214.59,2760.91C5214.59,2760.91 5143.07,2807.1 5111.11,2827.74C5101.89,2833.7 5098.92,2842.49 5103.49,2850.32C5125.11,2887.29 5186.02,2991.5 5186.02,2991.5C5186.02,2991.5 5268.75,2896.39 5297.64,2863.17C5303.69,2856.22 5303.21,2847.73 5296.41,2841.07C5271.8,2816.96 5214.59,2760.91 5214.59,2760.91Z" style="fill:rgb(152,152,152);"/>
                        <path d="M5214.59,2760.91L5296.41,2841.07C5303.21,2847.73 5303.69,2856.22 5297.64,2863.17L5186.02,2991.5L5103.49,2850.32C5098.92,2842.49 5101.89,2833.7 5111.11,2827.74L5214.59,2760.91ZM5212.67,2772.92L5119.62,2833.02C5113.62,2836.89 5111.69,2842.61 5114.66,2847.7L5188.15,2973.42L5287.21,2859.53C5291.14,2855.02 5290.83,2849.5 5286.41,2845.16L5212.67,2772.92Z" style="fill:rgb(152,152,152);"/>
                    </g>
                    <g transform="matrix(0.51295,0.0965097,-0.152406,0.810041,2993.36,-2124.35)">
                        <path d="M5221.98,2843.65C5218.14,2839.85 5211.87,2837.3 5204.82,2836.68C5197.77,2836.05 5190.63,2837.4 5185.28,2840.37C5184.24,2840.95 5183.22,2841.52 5182.23,2842.07C5175.64,2845.73 5172.66,2851.35 5174.42,2856.79C5178.07,2868.11 5184.16,2886.98 5185.98,2892.62C5186.34,2893.71 5186.5,2894.83 5186.48,2895.94C5186.22,2907.54 5184.72,2975.45 5184.72,2975.45L5191.18,2975.34C5191.18,2975.34 5209.47,2908.47 5212.36,2897.9C5212.61,2896.97 5213,2896.06 5213.52,2895.17C5216.3,2890.42 5225.86,2874.06 5231.48,2864.44C5234.14,2859.88 5233.27,2854.8 5229.14,2850.71C5226.98,2848.59 5224.5,2846.13 5221.98,2843.65Z" style="fill:rgb(137,214,150);stroke:rgb(152,152,152);stroke-width:9.01px;"/>
                    </g>
                    <g transform="matrix(0.964856,0.262778,-0.262778,0.964856,947.514,-3411.78)">
                        <path d="M5192.92,2780.23L5226.53,2783.01L5242.53,2686.03C5242.53,2686.03 5239.07,2364.09 5238.14,2277.76C5238.08,2272.22 5235.78,2266.94 5231.77,2263.12C5227.76,2259.29 5222.38,2257.24 5216.84,2257.45C5205.07,2257.87 5190.48,2258.4 5178.84,2258.82C5167.59,2259.23 5158.76,2268.61 5159.04,2279.86C5161.11,2364.89 5168.97,2687.95 5168.97,2687.95L5192.92,2780.23Z" style="fill:rgb(136,64,67);stroke:rgb(136,64,67);stroke-width:9.01px;"/>
                    </g>
                    <g transform="matrix(0.964856,0.262778,-0.0799931,0.293715,436.658,-1536.04)">
                        <path d="M5170.73,2766.52C5171.21,2782.6 5175.32,2794.85 5180.24,2794.85C5194.02,2794.85 5220.78,2794.85 5234.74,2794.85C5239.78,2794.85 5243.95,2782.01 5244.28,2765.49C5245.91,2684.03 5250.36,2461.11 5250.36,2461.11L5161.82,2469.21C5161.82,2469.21 5168.35,2687.28 5170.73,2766.52Z" style="fill:rgb(166,166,166);stroke:rgb(166,166,166);stroke-width:9.01px;"/>
                    </g>
                </g>
            </g>
        </g>
    </g>
</svg>
